STARTFONT 2.1
COMMENT This font image translated from Metafont
COMMENT Input file was ``bnsl10''
COMMENT DPI was ``360'', usermag ``1000'', blackness ``3''
COMMENT shrink was 1
FONT -*-bengali-medium-o-*-*-*-360-*-*-*-*-*-fontspecific
SIZE 10 360 360
FONTBOUNDINGBOX 96 63 -27 -15
STARTPROPERTIES 4
FONT_ASCENT 48
FONT_DESCENT 5
COPYRIGHT "GNU General Public License"
_XMBDFED_INFO "Edited with xmbdfed 4.5."
ENDPROPERTIES
CHARS 249
STARTCHAR C001
ENCODING 1
SWIDTH 500 0
DWIDTH 25 0
BBX 27 48 6 -4
BITMAP
40000000
40000000
40000000
70000000
3FFFC000
0FFFFC00
00003E00
00000300
00000100
00000080
00000080
00000080
00000180
7FFFFFE0
7FFFFFE0
00600000
00200000
003F8000
00FFE000
03F03000
07F01000
0FE01800
0FC01800
0F001800
00003800
00003800
00007000
0000F000
0001E000
0003C000
800F8000
603F0000
7FFC0000
1FF00000
0C000000
07000000
01800000
00C00000
00600000
00300000
00180000
000C0000
00060000
00030000
00018000
0000C000
00004000
00006000
ENDCHAR
STARTCHAR C002
ENCODING 2
SWIDTH 600 0
DWIDTH 30 0
BBX 33 45 5 -1
BITMAP
0400000000
0400000000
0600000000
03C0000000
01FFFF8000
003FFFF000
0000007800
0000000C00
0000000400
0000000200
0000000200
0000000200
0000000600
3FFFFFFF80
3FFFFFFF80
0300000000
0100000000
0180000000
03F0000000
07F8000000
0FC4002000
0FC2007000
0F8301F000
070307E000
00030FE000
00033FC000
0007FF8000
0007F38000
000FC30000
001F870000
003E070000
00F80E0000
03F00E0000
07C00C0000
1F000C0000
FE000C0000
78001C0000
00001C0000
0000180000
0000180000
0000180000
0000180000
0000180000
0000180000
0000080000
ENDCHAR
STARTCHAR C003
ENCODING 3
SWIDTH 600 0
DWIDTH 30 0
BBX 32 43 6 2
BITMAP
40000000
80000000
80000000
C0000000
7C000000
3FFFFE00
03FFFFC0
000001F0
00000038
00000008
00000004
00000004
00000004
0000000C
7FFFFFFF
7FFFFFFF
00018000
00018000
10010000
10010000
30030000
30030000
20020000
20020180
20060380
20060F80
20043EC0
2004FCC0
2007F040
2007C040
20070040
20000040
300000C0
300000C0
10000180
18000180
18000380
0C000700
0E001E00
0780FC00
03FFF800
01FFE000
007F0000
ENDCHAR
STARTCHAR C004
ENCODING 4
SWIDTH 640 0
DWIDTH 32 0
BBX 33 42 7 2
BITMAP
1000000000
1000000000
1000000000
1C00000000
0FFFF00000
03FFFF8000
00000FF000
0000007800
0000000C00
0000000400
0000000200
0000000200
0000000600
FFFFFFFF80
FFFFFFFF80
0000400000
0000400000
2300C00000
6300C00000
6200800000
4200800000
4601800000
4601808000
440101C000
440107C000
44030F4000
44033E4000
4403F84000
4403F04000
6401C04000
6400004000
240000C000
360000C000
3600008000
1A00018000
1B00038000
0F00070000
0F801E0000
07C0FC0000
03FFF80000
01FFE00000
007F000000
ENDCHAR
STARTCHAR C005
ENCODING 5
SWIDTH 720 0
DWIDTH 36 0
BBX 31 33 9 -1
BITMAP
1C000000
3E030402
7E078C06
7E1FCC06
7C3CF80C
78F8780C
7FE1F80C
3FC7D80C
1F1F3018
007C3018
01F03018
03C03018
0F006030
1E006030
38006030
70006030
E000C060
F000C060
3C00C060
1E00C060
0701E0C0
0381B0C0
01C198C0
00E18CC0
00630780
00730380
003B0380
001B0380
001E0100
000E0000
000E0000
000E0000
00060000
ENDCHAR
STARTCHAR C006
ENCODING 6
SWIDTH 640 0
DWIDTH 32 0
BBX 28 32 7 -1
BITMAP
000007C0
00003FE0
0000FE30
0001F030
0003C030
00078070
000F0070
000E0060
001C0060
001C00E0
303F80E0
303FC0C0
603FC0C0
603FC1C0
403FC1C0
C01F8180
C00F0180
80000380
80000380
80000300
80000300
C0000700
E0000700
7FFF0600
3FFFE600
1FFFF600
0000FE00
00001E00
00000C00
00000C00
00001C00
00000C00
ENDCHAR
STARTCHAR C007
ENCODING 7
SWIDTH 760 0
DWIDTH 38 0
BBX 37 47 7 -1
BITMAP
0000300000
0000700000
0000600000
0000C00000
0000C00000
0000C00000
0000C00000
0000E00000
0000780000
00007FF000
00003FFF80
00000FFFE0
0000001FF0
00000000F0
0000000038
000007C018
00003FE018
0000FE3018
0001F03018
0003C03010
0007807030
000F007020
000E006060
001C0061C0
001C00E780
303F80FF00
303FC0FC00
603FC0F000
603FC1C000
403FC1C000
C01F818000
C00F018000
8000038000
8000038000
8000030000
8000030000
C000070000
E000070000
7FFF060000
3FFFE60000
1FFFFE0000
0000FE0000
00001C0000
00000C0000
00001C0000
00001C0000
0000080000
ENDCHAR
STARTCHAR C008
ENCODING 8
SWIDTH 580 0
DWIDTH 29 0
BBX 26 30 7 2
BITMAP
0000FC00
0003FF00
000FFF80
003F0380
007C00C0
60F000C0
61F001C0
61F801C0
E3F80380
E3F80780
C3F00F00
C1E1FE00
C003FC00
C007F800
C007F000
C007F800
C003D800
C0000C00
C0000C00
C0000C00
40000C00
60001C00
60001C00
20003800
30007800
1800F000
1E03E000
0FFFC000
07FF0000
01FC0000
ENDCHAR
STARTCHAR C014
ENCODING 14
SWIDTH 300 0
DWIDTH 15 0
BBX 21 31 2 0
BITMAP
07FFF8
07FFF8
000700
000E00
000E00
001C00
003800
003800
003800
007000
007000
007000
007000
007000
00E000
00E000
00E000
00E000
00E000
00E000
01C000
01C000
01C000
01C000
038000
038000
070000
070000
0E0000
1C0000
F80000
ENDCHAR
STARTCHAR C015
ENCODING 15
SWIDTH 0 0
DWIDTH 0 0
BBX 24 11 -27 -5
BITMAP
800000
800001
800001
800003
800003
C00002
FFFFF2
7FFFFE
3FFFFE
00000C
000004
ENDCHAR
STARTCHAR C016
ENCODING 16
SWIDTH 600 0
DWIDTH 30 0
BBX 31 35 7 -4
BITMAP
FFFFFFFE
FFFFFFFE
003C0180
007C01C0
007C01C0
00FC01C0
00EC01C0
01EE01C0
01CE03C0
C3C60380
E7830780
7F01FF00
3C1FFC00
007FF800
00FE0C00
01FC0400
01F80600
01E00600
00000E00
00000E00
00001C00
00003C00
0600F800
0303F000
01FFC000
007F0000
00380000
000C0000
00070000
00018000
0000C000
00006000
00003000
00001800
00000800
ENDCHAR
STARTCHAR C017
ENCODING 17
SWIDTH 620 0
DWIDTH 31 0
BBX 32 32 7 -1
BITMAP
FFFFFFFF
FFFFFFFF
001E0030
001E0038
003F0038
003F0038
007F0038
00730078
00F38070
41E180F0
63C0C1E0
3F807FC0
1E001F80
00000180
00000180
00000300
00000300
00000300
01F80300
0FFE0600
1FFF8600
3F07C600
7F00E600
7F006C00
7F003C00
7E003C00
3C001C00
00001800
00001800
00001800
00001800
00001000
ENDCHAR
STARTCHAR C018
ENCODING 18
SWIDTH 1140 0
DWIDTH 57 0
BBX 58 33 7 -1
BITMAP
0000000000000C00
FFFFFF801FC00FC0
FFFFFFC07FF00FC0
001E00C1F01C0C00
003E00E7C0061800
003E00FF00071800
007E00FF801F1800
007600F0C03F9800
00F701E040F8F000
01E301C061F07000
73C183C067C03000
3F80FF806F803000
1E003E007E006000
00000000FC006000
00000001F0006000
00000003E0006000
000000078000C000
000000030000C000
000000000000C000
000000000000C000
0000000000018000
0000000000018000
0000000000018000
0000000000018000
0000000000030000
0000000000030000
0000000000030000
0000000000030000
0000000000060000
0000000000060000
0000000000060000
0000000000060000
0000000000040000
ENDCHAR
STARTCHAR C019
ENCODING 19
SWIDTH 1140 0
DWIDTH 57 0
BBX 58 33 7 -1
BITMAP
0000000000000C00
FFFFFF801FC00FC0
FFFFFFC07FF00FC0
001E00C1F01C0C00
003E00E7C0061800
003E00FF00071800
007E00FF801F1800
007600F0C03F9800
00F701E040F8F000
01E301C061F07000
73C183C067C03000
3F80FF806F803000
1E003E007E006000
00000000FC006000
00000001F0006000
00000003E0006000
000000078000C000
000000030000C000
00000000FC00C000
00000003FE78C000
0000000787FD8000
0000000E03CF8000
0000000C01878000
0000001F01038000
0000001F81030000
0000001F80030000
0000001F80030000
0000001F00030000
0000000E00060000
0000000000060000
0000000000060000
0000000000060000
0000000000040000
ENDCHAR
STARTCHAR C020
ENCODING 20
SWIDTH 1020 0
DWIDTH 51 0
BBX 52 32 7 -1
BITMAP
FFFFFFFFFFFFF0
FFFFFFFFFFFFF0
001E0180000000
003E01C0000000
003E01C0000000
007E01C001C000
007E01C003F000
00F601C003F800
00E703C0063C00
61E303C0060C00
33C187E0060400
1F80FF30060400
0E003C180C0400
000000380C0C00
000000780C0C00
000000F00C1800
000001E018F800
000007C019F800
00000F8019F000
00001E0019F000
00001C0030E000
00001F00300000
000001C0300000
00000070300000
00000018600000
0000000C600000
00000006600000
00000003600000
00000001C00000
00000001C00000
00000001C00000
00000000800000
ENDCHAR
STARTCHAR C021
ENCODING 21
SWIDTH 620 0
DWIDTH 31 0
BBX 32 32 7 -1
BITMAP
FFFFFFFF
FFFFFFFF
001E0030
001E0038
003F0038
003F0038
007F0038
00730078
00F38070
41E180F0
63C0C1E0
3F807FC0
1E001F80
00000380
00001F80
0000FF00
0007F300
001F8300
007C0300
01F00600
03C00600
03F00600
00780600
001E0C00
000F0C00
00038C00
0001CC00
0000F800
00007800
00007800
00003800
00003000
ENDCHAR
STARTCHAR C022
ENCODING 22
SWIDTH 760 0
DWIDTH 38 0
BBX 39 32 7 -1
BITMAP
FFFFFFFFFE
FFFFFFFFFE
001E003060
001E0038C0
003F0038C0
003F0038C0
007F0038C0
0073007980
00F3807180
41E180F180
63C0C1E180
3F807FC300
1E001F0300
0000030300
0000030300
0000030600
0000060600
00001E0600
00007F0600
0000FF8C00
0001FFCC00
0001FCCC00
0001FC6C00
0001F87800
0000F03800
0000003800
0000003800
0000003000
0000003000
0000003000
0000003000
0000002000
ENDCHAR
STARTCHAR C023
ENCODING 23
SWIDTH 620 0
DWIDTH 31 0
BBX 32 32 7 -1
BITMAP
FFFFFFFF
FFFFFFFF
001E0030
001E0038
003F0038
003F0038
007F0038
00730078
00F38070
41E180F0
63C0C1E0
3F807FC0
1E001F80
00000180
00000180
00000300
00000300
07E00300
1FF9E300
3C3FF600
700F3E00
E0061E00
DC040E00
BE040C00
FE000C00
FE000C00
FC000C00
78001800
00001800
00001800
00001800
00001000
ENDCHAR
STARTCHAR C024
ENCODING 24
SWIDTH 500 0
DWIDTH 25 0
BBX 29 35 4 -4
BITMAP
1FFFFFF8
1FFFFFF8
00180000
000FC000
003FF000
00FC1800
01FC0800
03F80C00
03F00C00
03C01C00
00001C00
00003800
00007800
0001F000
0E07E000
07FFC000
01FE0000
00600000
00380000
000C0000
00070000
00018000
07F0C000
1FFCE000
3E06F000
78039800
70038000
F8018000
F8018000
F8030000
70030000
00030000
00030000
00060000
00060000
ENDCHAR
STARTCHAR C025
ENCODING 25
SWIDTH 740 0
DWIDTH 37 0
BBX 38 31 7 0
BITMAP
FFFFFFFFFC
FFFFFFFFFC
0000060000
0000060000
00000E0000
00003E0000
0001FC3C00
00078C7E00
001E0CFF00
00780CFF00
00E018FF00
038018FF00
0E00187B00
1C00180600
7000300600
6000300C00
7800383800
1C003FF000
070067C000
0380600000
00C0600000
0060600000
0030C00000
0018C00000
000CC00000
070CC00000
0F07800000
0F07800000
0E03800000
0003800000
0001000000
ENDCHAR
STARTCHAR C026
ENCODING 26
SWIDTH 700 0
DWIDTH 35 0
BBX 36 31 7 0
BITMAP
FFFFFFFFF0
FFFFFFFFF0
0000030000
0000030000
0000060000
00003E0000
0000F60000
0003C60000
000E0CF000
00380FF800
00E00F8C00
03800C0C00
0700181C00
1C00181800
3800181800
6000183800
7800303000
1C00303000
0700307000
0380306000
00C0606000
0060606000
003060E000
001860C000
000CC0C000
078CC0C000
0F86C1C000
0F83C18000
0F03818000
000180C000
0000800000
ENDCHAR
STARTCHAR C027
ENCODING 27
SWIDTH 560 0
DWIDTH 28 0
BBX 29 35 7 -4
BITMAP
FFFFFFF8
FFFFFFF8
00000000
00000000
03E03800
0FF87800
1F0C7C00
3C04E600
3E07E600
3F07C600
3F038600
3F030E00
3E000E00
1C001C00
00001C00
00003800
00007800
0001F000
0007E000
E03F8000
7FFE0000
3FF00000
0E000000
07800000
01C00000
00700000
00380000
000E0000
00070000
00018000
0000C000
00006000
00003000
00001800
00001800
ENDCHAR
STARTCHAR C028
ENCODING 28
SWIDTH 660 0
DWIDTH 33 0
BBX 35 35 6 -4
BITMAP
7FFFFFFFE0
7FFFFFFFE0
0020000000
0020000000
003FC00000
00FFF00000
01F8180000
03F0080000
07E00CE000
07C00FF000
07000F9800
00001C1800
00001C3800
0000383000
0000783000
0000F07000
0001E06000
8007C06000
E03F806000
7FFE00E000
1FF000C000
0E0000C000
030000C000
01C001C000
00E0018000
0030018000
0018018000
000C038000
0006030000
0003030000
0001830000
0000C10000
0000600000
0000600000
0000300000
ENDCHAR
STARTCHAR C029
ENCODING 29
SWIDTH 700 0
DWIDTH 35 0
BBX 27 31 8 1
BITMAP
000F8080
003FE0C0
00FFF1C0
01F079C0
03C01DE0
67F00FE0
67F807E0
E7F80360
E70C0360
C00C0060
C01C00E0
C01C00E0
C03800C0
C0781FC0
C0F03FC0
C1E07F80
C0C07F00
C0007F80
40003C80
600000C0
600000C0
200000C0
300001C0
100001C0
18000380
0C000780
0F000F00
07C07E00
03FFFC00
00FFF000
003F8000
ENDCHAR
STARTCHAR C030
ENCODING 30
SWIDTH 720 0
DWIDTH 36 0
BBX 28 31 8 1
BITMAP
3F00F040
3FC3F860
1FE7FCE0
00FF0CE0
003E07F0
607E03F0
61FF03B0
E3FF83B0
E7FF8130
C7FF8030
CFFF8070
CFDF8070
CF0F00E0
C0000FE0
C0001FC0
C0003FC0
C0003F80
40003FC0
60001E40
60000060
20000060
30000060
100000E0
180000E0
0C0001C0
0E0003C0
07800F80
03E03F00
01FFFC00
007FF800
001FC000
ENDCHAR
STARTCHAR C031
ENCODING 31
SWIDTH 640 0
DWIDTH 32 0
BBX 33 31 7 0
BITMAP
FFFFFFFF80
FFFFFFFF80
0080000000
0080000000
00C0000000
01FC000000
07FF078000
0FC19FC000
1F80B86000
1F00E06000
1C00C3E000
0001C7E000
0001CFE000
00038FE000
00078FC000
000F078000
803E000000
E0FC000000
3FF0000000
1FC0000000
0E00000000
0300000000
0180000000
00C0000000
0060000000
0030000000
0018000000
000C000000
0004000000
0006000000
0003000000
ENDCHAR
STARTCHAR C032
ENCODING 32
SWIDTH 400 0
DWIDTH 20 0
BBX 0 0 0 0
BITMAP
ENDCHAR
STARTCHAR C033
ENCODING 33
SWIDTH 600 0
DWIDTH 30 0
BBX 14 40 19 -6
BITMAP
0018
003C
003C
007C
0078
0078
00F8
00F8
00F0
00F0
01F0
01F0
01E0
01E0
01E0
03C0
03C0
03C0
03C0
0780
0780
0780
0700
0700
0F00
0E00
0E00
0400
0000
0000
0000
0000
0000
3800
7C00
FC00
FC00
FC00
F800
7000
ENDCHAR
STARTCHAR C034
ENCODING 34
SWIDTH 440 0
DWIDTH 22 0
BBX 20 18 9 23
BITMAP
07C3C0
0FE7E0
1FEFE0
1FEFF0
1FEFF0
1FEFF0
0FE7E0
00C0E0
01C0C0
0181C0
038180
070380
0E0700
1C0E00
381C00
703800
E07000
406000
ENDCHAR
STARTCHAR C035
ENCODING 35
SWIDTH 540 0
DWIDTH 27 0
BBX 25 39 4 -8
BITMAP
0000C180
0000C380
0001C300
00018700
00038600
00030600
00070E00
00060C00
00061C00
000E1800
000C3800
001C3000
00183000
00387000
3FFFFF80
3FFFFF80
0060C000
0061C000
00E18000
00C18000
01C38000
7FFFFE00
7FFFFE00
03060000
030E0000
070C0000
061C0000
0E180000
0C180000
1C380000
18300000
18700000
38600000
30E00000
70C00000
60C00000
E1C00000
C1800000
C1800000
ENDCHAR
STARTCHAR C036
ENCODING 36
SWIDTH 640 0
DWIDTH 32 0
BBX 31 45 3 -4
BITMAP
000000C0
000000C0
000001C0
00000180
00000380
00000700
00000600
00000E00
00000C00
00001C00
00001800
00003800
00007000
00006000
0000E000
0000C000
0001C000
00018000
00038000
00030000
00070000
000E0000
000C0000
001C1FFE
00181FFE
00380000
00300000
00700000
00E00000
00C00000
01C00000
01800000
03800000
03000000
07000000
0E000000
0C000000
1C000000
18000000
38000000
30000000
70000000
E0000000
C0000000
C0000000
ENDCHAR
STARTCHAR C037
ENCODING 37
SWIDTH 700 0
DWIDTH 35 0
BBX 36 45 4 -4
BITMAP
0003800030
000DC00070
0018C00060
00306001E0
0060780FC0
006067F380
00C0600700
00C0600600
0180600E00
0180601C00
0180C03800
0300C07000
0300C06000
030180E000
030181C000
0303038000
0303030000
0306070000
018C0E0000
01981C0000
00E0380000
0000300000
0000700000
0000E00000
0001C07000
0003819800
0003031800
0007060C00
000E0C0C00
001C0C0C00
0018180C00
0038180C00
0070300C00
00E0300C00
01C0301800
0180601800
0380601800
0700603000
0E00603000
1C00606000
1800606000
380060C000
7000318000
E000330000
C0001C0000
ENDCHAR
STARTCHAR C038
ENCODING 38
SWIDTH 480 0
DWIDTH 24 0
BBX 24 36 8 -4
BITMAP
03F010
0FFC1F
1F863F
3F0230
3E0330
380730
000760
000E60
001E60
C03C60
60F8C0
3FF0C0
0FC0C0
0700C0
018180
00C180
006180
003180
001B00
000F00
000700
001F00
00FE00
03F600
0F8600
3E0600
F80C00
F80C00
1E0C00
0F0C00
039800
01D800
00F800
007800
007000
003000
ENDCHAR
STARTCHAR C039
ENCODING 39
SWIDTH 300 0
DWIDTH 15 0
BBX 10 18 11 23
BITMAP
0F80
1FC0
3FC0
3FC0
3FC0
3FC0
1FC0
01C0
0180
0380
0300
0700
0E00
1C00
3800
7000
E000
C000
ENDCHAR
STARTCHAR C040
ENCODING 40
SWIDTH 280 0
DWIDTH 14 0
BBX 18 50 5 -10
BITMAP
0000C0
000180
000300
000600
000400
000C00
001800
003000
007000
006000
00E000
01C000
01C000
038000
038000
070000
070000
0E0000
0E0000
1E0000
1C0000
1C0000
3C0000
380000
380000
780000
700000
700000
700000
F00000
F00000
E00000
E00000
E00000
E00000
E00000
E00000
E00000
E00000
E00000
600000
600000
600000
700000
300000
300000
100000
180000
080000
080000
ENDCHAR
STARTCHAR C041
ENCODING 41
SWIDTH 280 0
DWIDTH 14 0
BBX 17 50 -1 -10
BITMAP
000800
000400
000400
000600
000600
000700
000300
000300
000300
000380
000380
000380
000380
000380
000380
000380
000380
000380
000380
000780
000780
000780
000700
000700
000700
000F00
000F00
000E00
001E00
001E00
001C00
003C00
003800
003800
007000
007000
00E000
00E000
01C000
01C000
038000
030000
070000
0E0000
0C0000
180000
300000
200000
400000
800000
ENDCHAR
STARTCHAR C042
ENCODING 42
SWIDTH 480 0
DWIDTH 24 0
BBX 21 25 9 16
BITMAP
000C00
000C00
001C00
001800
001800
181818
1C3878
0E30F0
0733C0
03B780
01FE00
00FC00
00F000
01F800
07FC00
0FCE00
3CC700
78C380
E1C1C0
C1C080
018000
018000
038000
038000
030000
ENDCHAR
STARTCHAR C043
ENCODING 43
SWIDTH 680 0
DWIDTH 34 0
BBX 30 32 6 -1
BITMAP
00003000
00007000
00006000
00006000
00006000
0000E000
0000C000
0000C000
0000C000
0001C000
00018000
00018000
00018000
00038000
00030000
FFFFFFFC
FFFFFFFC
00070000
00060000
00060000
00060000
000E0000
000C0000
000C0000
000C0000
001C0000
00180000
00180000
00180000
00380000
00300000
00300000
ENDCHAR
STARTCHAR C044
ENCODING 44
SWIDTH 360 0
DWIDTH 18 0
BBX 9 18 6 -11
BITMAP
1F00
3F80
7F80
7F80
7F80
7F80
3F80
0180
0380
0300
0700
0E00
1C00
1800
3800
7000
E000
C000
ENDCHAR
STARTCHAR C045
ENCODING 45
SWIDTH 340 0
DWIDTH 17 0
BBX 16 4 4 12
BITMAP
7FFF
7FFE
FFFE
FFFE
ENDCHAR
STARTCHAR C046
ENCODING 46
SWIDTH 500 0
DWIDTH 25 0
BBX 9 32 19 -1
BITMAP
0180
0180
0180
0180
0380
0380
0300
0300
0700
0700
0600
0600
0E00
0E00
0C00
0C00
1C00
1C00
1800
1800
3800
3800
3000
3000
7000
7000
6000
6000
E000
E000
C000
4000
ENDCHAR
STARTCHAR C047
ENCODING 47
SWIDTH 300 0
DWIDTH 15 0
BBX 23 39 -1 -8
BITMAP
000006
00000E
00000C
00001C
000038
000030
000070
000060
0000E0
0000C0
0001C0
000380
000300
000700
000600
000E00
000C00
001C00
001800
003800
007000
006000
00E000
00C000
01C000
018000
038000
030000
070000
0E0000
0C0000
1C0000
180000
380000
300000
700000
600000
E00000
400000
ENDCHAR
STARTCHAR C048
ENCODING 48
SWIDTH 540 0
DWIDTH 27 0
BBX 23 23 6 4
BITMAP
001F80
00FFE0
03FFF0
07E078
0F0018
1E000C
3C0004
380006
700006
700006
E00006
E0000E
C0000E
C0001C
C0001C
C00038
400078
6000F0
3001E0
3C0FC0
1FFF80
0FFE00
03F000
ENDCHAR
STARTCHAR C049
ENCODING 49
SWIDTH 540 0
DWIDTH 27 0
BBX 17 30 9 1
BITMAP
0C0000
1C0000
3C0000
380000
300000
300000
180000
1C0000
0F0000
078000
03C000
00F000
007800
003C00
000E00
000600
000300
000100
000180
000180
000180
000380
000380
0FC700
3FEF00
7FFE00
FFFC00
FFF000
FFC000
7E0000
ENDCHAR
STARTCHAR C050
ENCODING 50
SWIDTH 540 0
DWIDTH 27 0
BBX 20 33 7 -2
BITMAP
030000
070000
070000
070000
038000
01E000
007800
001E00
000780
0001E0
000070
000070
000070
000070
0000E0
0001C0
800780
F01E00
FFF800
7C0000
3E0000
1F0000
078000
03C000
01E000
007000
003800
001C00
000C00
000600
000300
000180
000180
ENDCHAR
STARTCHAR C051
ENCODING 51
SWIDTH 540 0
DWIDTH 27 0
BBX 20 23 8 3
BITMAP
800000
800000
800000
801F80
803FC0
807FE0
80FE60
80FE30
80FE30
80FC10
807810
800010
C00010
C00030
400030
600060
600060
3000C0
3801C0
1E0F80
0FFF00
07FC00
01F000
ENDCHAR
STARTCHAR C052
ENCODING 52
SWIDTH 540 0
DWIDTH 27 0
BBX 24 32 5 -1
BITMAP
0007F0
003FFC
00F03E
01800F
030007
060003
040003
0C0003
0C0003
0C0002
0C0006
0E000C
0F0018
07C070
03F3C0
00FF00
00FF00
03CFC0
0E03E0
1800F0
300070
600030
400030
C00030
C00030
C00020
C00060
E000C0
F00180
7C0F00
3FFC00
0FE000
ENDCHAR
STARTCHAR C053
ENCODING 53
SWIDTH 540 0
DWIDTH 27 0
BBX 27 32 4 -1
BITMAP
0001C000
0007C000
000FC000
003EC000
007C4000
00F06000
01E03000
03C01C00
078007C0
0F0003E0
0E000FC0
1C001F00
3C003C00
38007800
7000F000
7001E000
6001C000
E0038000
E0078000
C0070000
C0070000
C00E0000
C00E0000
C00C0000
400C0000
600C0000
200C0000
30040000
18060000
0F020000
03FF8000
007F8000
ENDCHAR
STARTCHAR C054
ENCODING 54
SWIDTH 540 0
DWIDTH 27 0
BBX 20 27 8 2
BITMAP
00C000
00E000
00E000
C02000
C02000
802000
802000
802000
806020
806070
8041F0
8043D0
804F90
807E10
807C10
807010
800030
C00030
C00060
400060
6000C0
6001C0
300780
3C1F00
1FFE00
0FF800
03E000
ENDCHAR
STARTCHAR C055
ENCODING 55
SWIDTH 540 0
DWIDTH 27 0
BBX 18 32 9 -1
BITMAP
007C00
01FF00
07E180
0F8080
1E00C0
3C00C0
7800C0
7000C0
E000C0
E000C0
C001C0
C01FC0
7FFF80
1FFB80
000380
000300
000300
000700
000700
000600
000600
000600
000E00
000E00
000C00
000C00
000C00
000C00
000C00
000C00
000600
000200
ENDCHAR
STARTCHAR C056
ENCODING 56
SWIDTH 540 0
DWIDTH 27 0
BBX 25 29 5 2
BITMAP
0C000000
0E000000
06000000
06000000
06000000
06000000
06000000
0C000000
0C000000
0C000000
0C000180
18000380
1FFC7F00
1FFFFE00
1807C000
30018000
30018000
30038000
30030000
60070000
60060000
600C0000
601C0000
C0380000
C0700000
C1E00000
C7C00000
FF000000
7C000000
ENDCHAR
STARTCHAR C057
ENCODING 57
SWIDTH 540 0
DWIDTH 27 0
BBX 23 32 4 -1
BITMAP
008000
018000
018000
018000
018000
01C000
01C000
00E000
00F000
007800
003E00
001F80
0007E0
0001F0
000078
00003C
00001C
00000E
00000E
000006
01F006
0FF806
1C3C06
301C04
600E0C
780E08
7C0618
FC0630
F80660
7006C0
000780
000600
ENDCHAR
STARTCHAR C058
ENCODING 58
SWIDTH 400 0
DWIDTH 20 0
BBX 12 24 10 3
BITMAP
03E0
07F0
0FF0
0FF0
0FF0
0FE0
07C0
0000
0000
0000
0000
0000
0000
0000
0000
0000
0000
3E00
7F00
FF00
FF00
FF00
FE00
7C00
ENDCHAR
STARTCHAR C059
ENCODING 59
SWIDTH 360 0
DWIDTH 18 0
BBX 12 28 6 -11
BITMAP
03E0
07F0
0FF0
0FF0
0FF0
0FE0
07C0
0000
0000
0000
1F00
3F80
7F80
7F80
7F80
7F80
3F80
0180
0380
0300
0700
0E00
1C00
1800
3800
7000
E000
C000
ENDCHAR
STARTCHAR C060
ENCODING 60
SWIDTH 740 0
DWIDTH 37 0
BBX 21 32 19 -1
BITMAP
010018
018018
018018
038018
038038
030038
030030
070030
070070
060070
060060
0E0060
0E00E0
0C00E0
0C00C0
1C00C0
1C01C0
1801C0
180180
380180
380380
300380
300300
700300
700700
600700
600600
E00600
E00E00
C00E00
C00C00
400400
ENDCHAR
STARTCHAR C061
ENCODING 61
SWIDTH 700 0
DWIDTH 35 0
BBX 32 13 5 8
BITMAP
3FFFFFFF
3FFFFFFF
00000000
00000000
00000000
00000000
00000000
00000000
00000000
00000000
00000000
FFFFFFFC
FFFFFFFC
ENDCHAR
STARTCHAR C062
ENCODING 62
SWIDTH 500 0
DWIDTH 25 0
BBX 26 35 7 -4
BITMAP
FFFFFFC0
FFFFFFC0
00C00000
007E0000
01FF8000
07E0C000
0FE04000
1FC06000
1F806000
1E00E000
0000E000
0001C000
0003C000
000F8000
703F0000
3FFE0000
0FF00000
03000000
01C00000
00600000
00380000
000C0000
00060000
000F0000
007F8000
03FCC000
1FCC0000
7E0C0000
7C0C0000
1F180000
07980000
01D80000
00F80000
00700000
00300000
ENDCHAR
STARTCHAR C063
ENCODING 63
SWIDTH 800 0
DWIDTH 40 0
BBX 19 37 25 -3
BITMAP
01FC00
0FFE00
1F0180
3C00C0
7E0060
7E0060
7E0060
7E0060
7C00E0
3800C0
0001C0
000380
000700
000E00
001C00
007800
00F000
01C000
038000
030000
070000
060000
060000
0E0000
0C0000
0C0000
0C0000
000000
000000
000000
000000
380000
7C0000
FC0000
FC0000
F80000
700000
ENDCHAR
STARTCHAR C064
ENCODING 64
SWIDTH 660 0
DWIDTH 33 0
BBX 34 34 7 -3
BITMAP
FFFFFFFFC0
FFFFFFFFC0
0000C00000
0001800000
0001800000
0001800000
1F81800000
3FE3000000
7FF3000000
FC7B001800
FC1B01F800
F80E0FF800
700E3F3000
0006783000
0007E06000
000FC06000
000F00C000
000E00C000
000001C000
0000018000
00000F8000
00007F8000
0001F98000
0007C30000
001F030000
001F030000
0007830000
0001C60000
0000E60000
0000760000
00003E0000
00001C0000
00001C0000
00000C0000
ENDCHAR
STARTCHAR C065
ENCODING 65
SWIDTH 300 0
DWIDTH 15 0
BBX 16 33 7 -1
BITMAP
0180
E1FF
F1FF
1B80
0F80
0F00
0700
0700
0700
0600
0600
0E00
0E00
0C00
0C00
1C00
1C00
1800
1800
3800
3800
3000
3000
7000
7000
6000
6000
E000
E000
C000
C000
C000
4000
ENDCHAR
STARTCHAR C066
ENCODING 66
SWIDTH 520 0
DWIDTH 26 0
BBX 17 32 8 -1
BITMAP
003F00
00FF80
03C380
070180
0F0180
1F0100
338700
23FE00
61F800
400000
C00000
C00000
C00000
E00000
E00000
700000
780000
3C0000
1F0000
0FC000
03E000
00F800
007C00
001E00
000F00
000700
000380
000380
000180
000180
000100
000100
ENDCHAR
STARTCHAR C067
ENCODING 67
SWIDTH 540 0
DWIDTH 27 0
BBX 28 35 7 -4
BITMAP
FFFFFFF0
FFFFFFF0
1C000000
1C000000
1C000000
1C000000
1E000000
3BFF8000
38FFE000
300C3000
301C1000
703C1800
70781800
61F03800
67E03800
7F807000
3E00F000
0001E000
0007C000
001F8000
03FE0000
FFF80000
FF000000
07800000
01E00000
00700000
00180000
000C0000
00060000
00030000
00018000
0000C000
00006000
00006000
00003000
ENDCHAR
STARTCHAR C068
ENCODING 68
SWIDTH 600 0
DWIDTH 30 0
BBX 31 29 7 2
BITMAP
FFFFFFFE
FFFFFFFE
00030000
00030000
20020000
20020000
60060000
60060000
40040000
40040300
400C0700
400C1F00
40087D80
4009F980
400FE080
400F8080
400E0080
40000080
60000180
60000180
20000300
30000300
30000700
18000E00
1C003C00
0F01F800
07FFF000
03FFC000
00FE0000
ENDCHAR
STARTCHAR C069
ENCODING 69
SWIDTH 320 0
DWIDTH 16 0
BBX 19 46 5 -1
BITMAP
800000
800000
800000
C00000
F00000
7FE000
1FFC00
003F00
000780
0001C0
0000C0
000040
000040
0000C0
3FFFE0
3FFFE0
000700
000C00
001800
003000
006000
00C000
018000
030000
030000
060000
0C0000
0C0000
180000
180000
300000
300000
300000
600000
600000
600000
600000
600000
600000
600000
600000
307000
30F800
1CF800
0FF800
03F000
ENDCHAR
STARTCHAR C070
ENCODING 70
SWIDTH 540 0
DWIDTH 27 0
BBX 29 32 6 -1
BITMAP
7FFFFFF8
7FFFFFF8
3C000180
07000300
01C00300
00E00300
00700300
00380600
001C0600
001E0600
007F0600
00FB8C00
03E1CC00
07C0EC00
0F007C00
3E001800
7C001800
F0001800
7C001800
0F003000
03C03000
00E03000
00303000
00186000
000C6000
00066000
00036000
0003C000
0001C000
0001C000
0001C000
00008000
ENDCHAR
STARTCHAR C071
ENCODING 71
SWIDTH 560 0
DWIDTH 28 0
BBX 29 32 7 -1
BITMAP
FFFFFFF8
FFFFFFF8
1E000180
3C000300
38000300
70000300
70000300
60000600
60000600
200C0600
303E0600
1FFC0C00
07F80C00
01F00C00
03C00C00
0F801800
1F001800
3C001800
78001800
3E003000
07803000
01E03000
00703000
00186000
000C6000
00066000
00036000
0003C000
0001C000
0001C000
0001C000
00008000
ENDCHAR
STARTCHAR C072
ENCODING 72
SWIDTH 340 0
DWIDTH 17 0
BBX 15 28 5 3
BITMAP
00F0
01FC
0386
0706
0606
0606
060E
061C
03F8
00F0
0000
0000
0000
0000
0000
0000
0000
1F00
3FC0
7040
6060
E060
C060
C0E0
C0C0
41C0
7F80
1F00
ENDCHAR
STARTCHAR C073
ENCODING 73
SWIDTH 240 0
DWIDTH 12 0
BBX 32 47 -12 -1
BITMAP
03FFE000
1FFFFC00
3E003F00
70000780
E00001C0
C00000E0
80000060
80000020
C0000030
F0000030
7FFE0010
1FFF8010
0003C010
0000C010
00004030
000047FF
000047FF
00000060
00000060
00000060
00000060
000000C0
000000C0
000000C0
000000C0
00000180
00000180
00000180
00000180
00000300
00000300
00000300
00000300
00000600
00000600
00000600
00000600
00000C00
00000C00
00000C00
00000C00
00001800
00001800
00001800
00001800
00003000
00001000
ENDCHAR
STARTCHAR C074
ENCODING 74
SWIDTH 680 0
DWIDTH 34 0
BBX 35 33 7 -1
BITMAP
0000000600
FFFFFC07E0
FFFFFE07E0
00000C0600
00000C0C00
00003C0C00
0000FC0C00
0003D80C00
000F181800
003C181800
0070181800
01C0301800
0380303000
0E00303000
1C00303000
3000603000
6000606000
7800606000
1E00606000
0700E06000
0180F0C000
00C0D8C000
0060CCC000
00318CC000
0031878000
0019838000
0019838000
000F038000
000F010000
0007000000
0007000000
0006000000
0002000000
ENDCHAR
STARTCHAR C075
ENCODING 75
SWIDTH 620 0
DWIDTH 31 0
BBX 31 33 8 -1
BITMAP
00000060
0007007E
000F807E
003FC0E0
387CE0E0
7CF060C0
FFE030C0
FFC031C0
FF0071C0
FC007180
7000E180
0001E380
0007C380
001F8300
00FE0300
07F80700
3FE00700
1F000600
1FC00600
03F00E00
00F80E00
003C0C00
000E0C00
00071C00
00031C00
00019800
00009800
0000F800
00007800
00007000
00007000
00003000
00003000
ENDCHAR
STARTCHAR C076
ENCODING 76
SWIDTH 740 0
DWIDTH 37 0
BBX 38 32 7 -1
BITMAP
FFFFFFFFFC
FFFFFFFFFC
040000C000
060000C000
060000C000
060000C000
3FC0018000
7FF401FE00
FF1FFFFF00
FF0FFF8300
FF04030300
FE06030700
7C06030600
0006030600
0006060E00
000E060C00
000C060C00
01FC060C00
03F80C1C00
07FE0C1800
07F38C1800
07F0CC1800
07E0783800
03C0783000
0000383000
0000383000
0000307000
0000306000
0000306000
0000300000
0000700000
0000200000
ENDCHAR
STARTCHAR C077
ENCODING 77
SWIDTH 400 0
DWIDTH 20 0
BBX 13 31 9 0
BITMAP
03C0
0FF0
1E18
3818
3018
3018
3038
30F0
1FE0
0780
0000
0000
0000
C000
E000
E000
F000
7800
3800
3C00
1E00
0E00
0F00
0700
0300
0380
0180
0180
0080
0080
0080
ENDCHAR
STARTCHAR C078
ENCODING 78
SWIDTH 520 0
DWIDTH 26 0
BBX 27 33 7 -1
BITMAP
00000600
00FC07E0
03FF07E0
0F818E00
1E00CE00
3C006C00
78007C00
70003C00
F0001C00
E0001800
E0001800
E1C03800
E3E03800
67E03000
3FC03000
1F807000
00007000
00006000
00006000
0000E000
0000E000
0000C000
0000C000
0001C000
0001C000
00018000
00018000
00038000
00038000
00030000
00030000
00030000
00010000
ENDCHAR
STARTCHAR C079
ENCODING 79
SWIDTH 240 0
DWIDTH 12 0
BBX 32 46 -12 -1
BITMAP
40000000
C0000000
80000000
80000000
E0000000
7FFF0000
1FFFFE00
0000FF80
000001E0
00000070
00000018
00000008
00000008
00000010
000007FF
000007FF
00000060
00000060
00000060
00000060
000000C0
000000C0
000000C0
000000C0
00000180
00000180
00000180
00000180
00000300
00000300
00000300
00000300
00000600
00000600
00000600
00000600
00000C00
00000C00
00000C00
00000C00
00001800
00001800
00001800
00001800
00003000
00001000
ENDCHAR
STARTCHAR C080
ENCODING 80
SWIDTH 800 0
DWIDTH 40 0
BBX 35 33 8 -1
BITMAP
0000040000
03E00E0000
0FF80E0F80
1E0C0C3FC0
38040C7060
7C061CC020
7C061D8020
7C061B0020
780E1E0060
000C3C0040
001C3800C0
0038300F80
0070301F00
01E0701F00
07C0701F80
3F00600080
FC00700080
7C00F00080
0F00F80180
0380C80100
00C0CC0300
0061C70E00
0031C3FC00
003180F000
0019800000
001B800000
000F800000
000F000000
0007000000
0007000000
0007000000
0006000000
0002000000
ENDCHAR
STARTCHAR C081
ENCODING 81
SWIDTH 900 0
DWIDTH 45 0
BBX 41 32 7 -1
BITMAP
000007C00000
00003FE00000
0000FE300000
0001F0300000
0003C0303E00
00078070FF00
000F0073FF00
000E00678380
001C006E0180
001C00F80180
303F80F00180
303FC0E00100
603FC0C00300
603FC1C07600
403FC1C0FC00
C01F8181F800
C00F0181F800
80000380F800
800003800C00
800003800C00
800003801C00
C00007C01C00
E00007603800
7FFF06787800
3FFFE63FF000
1FFFFE1FE000
0000FE078000
00001C000000
00000C000000
00001C000000
00001C000000
000008000000
ENDCHAR
STARTCHAR C082
ENCODING 82
SWIDTH 600 0
DWIDTH 30 0
BBX 31 38 7 -7
BITMAP
FFFFFFFE
FFFFFFFE
00030000
00030000
20020000
20020000
60060000
60060000
40040000
40040300
400C0700
400C1F00
40087D80
4009F980
400FE080
400F8080
400E0080
40000080
60000180
60000180
20000300
30000300
30000700
18000E00
1C003C00
0F01F800
07FFF000
03FFC000
00FE0000
00000000
00000000
00000000
00E00000
01F00000
03F00000
03F00000
03E00000
01C00000
ENDCHAR
STARTCHAR C083
ENCODING 83
SWIDTH 580 0
DWIDTH 29 0
BBX 31 33 6 -1
BITMAP
70000060
7C01F07E
7E07F87E
0F0FFCE0
033E0CE0
01FC06C0
01F002C0
03F803C0
0FFC01C0
1FFC0180
3FFE0180
7FFE0380
7FFE0380
FFFE0300
FCFE0300
F03C0700
00000700
00000600
00000600
00000E00
00000E00
00000C00
00000C00
00001C00
00001C00
00001800
00001800
00003800
00003800
00003000
00003000
00003000
00001000
ENDCHAR
STARTCHAR C084
ENCODING 84
SWIDTH 480 0
DWIDTH 24 0
BBX 26 43 6 1
BITMAP
40000000
40000000
40000000
70000000
3FFFC000
0FFFF800
00003C00
00000600
00000200
00000100
00000100
00000100
00000300
7FFFFFC0
7FFFFFC0
06000000
06000000
0E000000
0E000000
0C000000
0C000000
1C000000
1C000000
18000000
1801C000
3803E000
3807E000
3007E000
3007E000
7003E000
7001C000
6001C000
60038000
E0078000
E00F0000
C01E0000
C03C0000
C0F80000
C1F00000
C7C00000
7F800000
7E000000
38000000
ENDCHAR
STARTCHAR C085
ENCODING 85
SWIDTH 0 0
DWIDTH 0 0
BBX 20 16 -15 -15
BITMAP
03E000
1FF000
3E0000
700000
E00000
C00000
C00000
C1E000
7FF000
3F1800
000E00
000700
000180
0000C0
000060
000030
ENDCHAR
STARTCHAR C086
ENCODING 86
SWIDTH 480 0
DWIDTH 24 0
BBX 27 38 5 -7
BITMAP
3FFFFFE0
3FFFFFE0
03000000
03000000
07000000
07000000
06000000
06000000
0E000000
0E000000
0C000000
0C00E000
1C01F000
1C03F000
1803F000
1803F000
3801F000
3800E000
3000E000
3001C000
7003C000
70078000
600F0000
601E0000
607C0000
60F80000
63E00000
3FC00000
3F000000
1C000000
00000000
00000000
38000000
7C000000
FC000000
FC000000
F8000000
70000000
ENDCHAR
STARTCHAR C087
ENCODING 87
SWIDTH 0 0
DWIDTH 0 0
BBX 12 12 -13 -11
BITMAP
0180
07C0
0F80
3E00
FC00
7000
7C00
3E00
0F80
03E0
01E0
0070
ENDCHAR
STARTCHAR C088
ENCODING 88
SWIDTH 480 0
DWIDTH 24 0
BBX 26 30 6 1
BITMAP
7FFFFFC0
7FFFFFC0
06000000
06000000
0E000000
0E000000
0C000000
0C000000
1C000000
1C000000
18000000
1801C000
3803E000
3807E000
3007E000
3007E000
7003E000
7001C000
6001C000
60038000
E0078000
E00F0000
C01E0000
C03C0000
C0F80000
C1F00000
C7C00000
7F800000
7E000000
38000000
ENDCHAR
STARTCHAR C089
ENCODING 89
SWIDTH 540 0
DWIDTH 27 0
BBX 29 32 6 -1
BITMAP
7FFFFFF8
7FFFFFF8
3C000180
07000300
01C00300
00E00300
00700300
00380600
001C0600
001C0600
007C0600
00F80C00
03E00C00
07C00C00
0F000C00
3E001800
7C001800
F0001800
7C001800
0F003000
03C03000
00E03000
00303000
00186000
000C6000
00066000
00036000
0003C000
0001C000
0001C000
0001C000
00008000
ENDCHAR
STARTCHAR C090
ENCODING 90
SWIDTH 500 0
DWIDTH 25 0
BBX 28 46 5 2
BITMAP
0001C000
0003C000
00078000
00070000
00060000
00060000
00060000
00060000
00060000
00060000
00020000
00030000
00030000
00030000
00010000
00018000
00018000
3FFFFFF0
3FFFFFF0
0000C000
0000E000
0001E000
0001E000
0001B000
0003B000
00039000
00071800
000F1800
000E1800
001C1800
003C1800
00781800
00F03800
01E03800
07C07000
0F807000
3E00E000
FC00E000
F001C000
C003C000
C0078000
C00F0000
403E0000
60FC0000
3FF00000
0FC00000
ENDCHAR
STARTCHAR C091
ENCODING 91
SWIDTH 200 0
DWIDTH 10 0
BBX 21 51 0 -10
BITMAP
0007F8
0007F0
000FF0
000FE0
000E00
000E00
001E00
001E00
001C00
001C00
003C00
003C00
003800
003800
007800
007800
007000
007000
00F000
00F000
00E000
00E000
01E000
01E000
01C000
01C000
03C000
03C000
038000
038000
078000
078000
070000
070000
0F0000
0F0000
0E0000
0E0000
1E0000
1E0000
1C0000
1C0000
3C0000
3C0000
380000
380000
780000
780000
7F8000
7F0000
FF0000
ENDCHAR
STARTCHAR C092
ENCODING 92
SWIDTH 440 0
DWIDTH 22 0
BBX 20 18 9 23
BITMAP
006030
00E0F0
01C1E0
038380
070700
0E0600
1C0E00
381C00
303800
703000
607000
7E6F00
7F7F80
FF7F80
7F7F80
7F7F80
7E3F00
3C1E00
ENDCHAR
STARTCHAR C093
ENCODING 93
SWIDTH 200 0
DWIDTH 10 0
BBX 20 51 -3 -10
BITMAP
0007F0
000FF0
000FF0
000FE0
0000E0
0000E0
0001E0
0001C0
0001C0
0001C0
0003C0
000380
000380
000380
000780
000700
000700
000700
000F00
000E00
000E00
000E00
001E00
001C00
001C00
003C00
003C00
003800
003800
007800
007800
007000
007000
00F000
00F000
00E000
00E000
01E000
01E000
01C000
01C000
03C000
03C000
038000
038000
078000
078000
070000
7F0000
FF0000
FF0000
ENDCHAR
STARTCHAR C094
ENCODING 94
SWIDTH 0 0
DWIDTH 0 0
BBX 24 12 0 33
BITMAP
000007
00001E
000078
0001E0
000780
001E00
007C00
01F000
03C000
0F0000
3C0000
F80000
ENDCHAR
STARTCHAR C095
ENCODING 95
SWIDTH 0 0
DWIDTH 0 0
BBX 9 9 -6 -13
BITMAP
8000
C000
6000
3000
1800
0C00
0600
0300
0180
ENDCHAR
STARTCHAR C096
ENCODING 96
SWIDTH 300 0
DWIDTH 15 0
BBX 10 18 10 23
BITMAP
00C0
01C0
0380
0700
0E00
1C00
1800
3800
7000
6000
E000
FE00
FF00
FF00
FF00
FF00
FE00
7C00
ENDCHAR
STARTCHAR C097
ENCODING 97
SWIDTH 800 0
DWIDTH 40 0
BBX 41 32 7 -1
BITMAP
FFFFFFFFFF80
FFFFFFFFFF80
001800001800
000C00003000
2007F8003000
2007FE003000
201FFF003000
203F87806000
307F81806000
307F80C06000
107F80C06000
107F0040C000
183E0040C000
18000040C000
08000040C000
0C0000C18000
0C0000C18000
040000818000
060001818000
060001830000
030003830000
038007C30000
01C00EC30000
00F03C660000
007FF8660000
003FF0360000
000FC0360000
0000001C0000
0000001C0000
0000000C0000
0000000C0000
000000080000
ENDCHAR
STARTCHAR C098
ENCODING 98
SWIDTH 500 0
DWIDTH 25 0
BBX 27 31 6 0
BITMAP
7FFFFFE0
7FFFFFE0
00000600
00000C00
00000C00
00007C00
0001EC00
00079800
001C1800
00701800
01E01800
03803000
0E003000
1C003000
70003000
E0006000
78006000
1C006000
07006000
0380C000
00C0C000
0060C000
0030C000
00198000
00198000
000D8000
000D8000
00070000
00070000
00030000
00020000
ENDCHAR
STARTCHAR C099
ENCODING 99
SWIDTH 480 0
DWIDTH 24 0
BBX 26 30 6 1
BITMAP
7FFFFFC0
7FFFFFC0
06000000
06000000
0E000000
0E000000
0F000000
0D800000
1DC00000
1CF00000
187E0000
183FC000
380FE000
3801E000
30006000
3000E000
7000E000
7001C000
6001C000
60038000
E0078000
E00F0000
C01E0000
C03C0000
C0F80000
C1F00000
C7C00000
7F800000
7E000000
38000000
ENDCHAR
STARTCHAR C100
ENCODING 100
SWIDTH 460 0
DWIDTH 23 0
BBX 25 32 6 -1
BITMAP
7FFFFF80
7FFFFF80
0C000000
0C000000
1C000000
18000000
18000000
18002000
3800F000
3003F000
300FE000
303EC000
70F9C000
61E38000
67830000
6F070000
FC060000
F80E0000
E00C0000
C00C0000
001C0000
00180000
00180000
00180000
00380000
00300000
00300000
00300000
00300000
00300000
00300000
00100000
ENDCHAR
STARTCHAR C101
ENCODING 101
SWIDTH 320 0
DWIDTH 16 0
BBX 18 32 6 -1
BITMAP
7FFFC0
7FFFC0
000E00
001800
003000
006000
00C000
018000
030000
060000
060000
0C0000
180000
180000
300000
300000
600000
600000
600000
C00000
C00000
C00000
C00000
C00000
C00000
C00000
C00000
60E000
61F000
39F000
1FF000
07E000
ENDCHAR
STARTCHAR C102
ENCODING 102
SWIDTH 660 0
DWIDTH 33 0
BBX 34 32 7 -1
BITMAP
FFFFFFFFC0
FFFFFFFFC0
3C00000000
0E00000000
0380000000
01C00F0000
00E00FC000
00701FE000
003818F000
0078183000
00F8181000
01E0301000
03C0301000
078033B000
1F0037F000
3E006FE000
78006FE000
F0006FC000
7C00678000
0F00C00000
0380C00000
00C0C00000
0060C00000
0031800000
0019800000
0019800000
000D800000
0007000000
0007000000
0007000000
0007000000
0002000000
ENDCHAR
STARTCHAR C103
ENCODING 103
SWIDTH 560 0
DWIDTH 28 0
BBX 29 33 7 -1
BITMAP
00000180
000001F8
00FE01F8
03FFC380
0FC0E380
1F003300
3C001B00
78000F00
7FC00F00
FFF00E00
FC180600
60180E00
00180E00
00380C00
00380C00
00701C00
00F01C00
01E01800
03C01800
07803800
0F003800
06003000
00003000
00007000
00007000
00006000
00006000
0000E000
0000E000
0000C000
0000C000
0000C000
00004000
ENDCHAR
STARTCHAR C104
ENCODING 104
SWIDTH 500 0
DWIDTH 25 0
BBX 27 35 6 -4
BITMAP
7FFFFFE0
7FFFFFE0
00600000
00200000
003F8000
00FFE000
03F03000
07F01000
0FE01800
0FC01800
0F001800
00003800
00003800
00007000
0000F000
0001E000
0003C000
800F8000
E03F0000
7FFC0000
1FF00000
0C000000
07000000
03800000
00C00000
00600000
00300000
00180000
000C0000
00060000
00030000
00018000
0000C000
0000C000
00006000
ENDCHAR
STARTCHAR C105
ENCODING 105
SWIDTH 260 0
DWIDTH 13 0
BBX 34 47 6 -1
BITMAP
0003FC0000
001FFF8000
007F01E000
00F8003800
01E0000C00
03C0000600
0380000300
0700000300
0700000180
0600000180
0600000080
06000000C0
0600000000
0200000000
0300000000
7FFE000000
7FFE000000
0180000000
0180000000
0180000000
0180000000
0300000000
0300000000
0300000000
0300000000
0600000000
0600000000
0600000000
0600000000
0C00000000
0C00000000
0C00000000
0C00000000
1800000000
1800000000
1800000000
1800000000
3000000000
3000000000
3000000000
3000000000
6000000000
6000000000
6000000000
6000000000
C000000000
4000000000
ENDCHAR
STARTCHAR C106
ENCODING 106
SWIDTH 700 0
DWIDTH 35 0
BBX 36 32 7 -1
BITMAP
FFFFFFFFF0
FFFFFFFFF0
000E000000
001E000000
003A000000
4072000000
40E3800E00
C1C1FFFE00
C1807FFC00
8300000C00
8300001800
8200601800
8201E03000
8307F03000
83FFB06000
81FE186000
C0F8186000
C00008C000
400008C000
600018C000
600018C000
300030C000
3800718000
1F01E18000
0FFFC18000
07FF818000
00FE018000
0000018000
0000018000
0000018000
0000018000
0000008000
ENDCHAR
STARTCHAR C107
ENCODING 107
SWIDTH 700 0
DWIDTH 35 0
BBX 36 31 7 0
BITMAP
FFFFFFFFF0
FFFFFFFFF0
0000060000
0000060000
00000F8000
00003FE000
0001FCF000
00078C3800
001E181800
0078181C00
01E0180C00
0380180C00
0E00300C00
1C00300C00
7000300C00
E000300800
780061D800
1C0063F000
070063F000
038063E000
00C0C1C000
0060C00000
0030C00000
0018C00000
0019800000
000D800000
0007800000
0007800000
0003000000
0003000000
0001000000
ENDCHAR
STARTCHAR C108
ENCODING 108
SWIDTH 620 0
DWIDTH 31 0
BBX 32 32 7 -1
BITMAP
FFFFFFFF
FFFFFFFF
00000030
00000060
00000060
00000060
00000060
000000C0
07F078C0
1FF8FCC0
3C1DCEC0
700D8780
60070380
C0070380
C0020180
80020300
83800300
C7C00300
EFC00300
7FC00600
3F800600
0F000600
00000600
00000C00
00000C00
00000C00
00000C00
00001800
00001800
00001800
00001800
00001000
ENDCHAR
STARTCHAR C109
ENCODING 109
SWIDTH 540 0
DWIDTH 27 0
BBX 28 32 7 -1
BITMAP
FFFFFFF0
FFFFFFF0
3C000300
38000600
30000600
30000600
10000600
18000C00
08000C00
0C000C00
06000C00
02001800
03001800
01801800
00801800
00C03000
00C03000
0FC03000
1FC03000
3FE06000
3FF86000
3FFC6000
3F8E6000
3F06C000
1E03C000
0001C000
0001C000
00018000
00018000
00018000
00018000
00010000
ENDCHAR
STARTCHAR C110
ENCODING 110
SWIDTH 520 0
DWIDTH 26 0
BBX 27 32 7 -1
BITMAP
FFFFFFE0
FFFFFFE0
00000600
00000C00
00000C00
00000C00
00000C00
00001800
00001800
00001800
00001800
00003000
0FC03000
3FF03000
7FF83000
FF3C6000
FF0C6000
FF066000
FE066000
7C03C000
0003C000
0001C000
0001C000
00018000
00018000
00018000
00018000
00030000
00030000
00030000
00030000
00020000
ENDCHAR
STARTCHAR C111
ENCODING 111
SWIDTH 660 0
DWIDTH 33 0
BBX 31 44 7 2
BITMAP
00004000
0000C000
00018000
00030000
00030000
00030000
00038000
0001E000
0001FC00
0000FFE0
00003FF8
000007FC
0000003C
0000000E
0001FC06
000FFF06
003FFF86
007E0386
00F000C4
61F000CC
61F801C8
61F801D8
E1F803B0
E1F007E0
C0E00FC0
C001FF80
C003FF00
C007FE00
C007F800
C007F800
C003D800
C0000C00
C0000C00
C0000C00
40000C00
60001C00
60001C00
20003800
30007800
1800F000
1E03E000
0FFFC000
07FF0000
01FC0000
ENDCHAR
STARTCHAR C112
ENCODING 112
SWIDTH 600 0
DWIDTH 30 0
BBX 30 33 8 -1
BITMAP
000000C0
000000FC
00FC00FC
03FF01C0
0F81C1C0
3E006180
78003180
FE00FB80
4301FB80
0107CF00
018F8300
01BE0700
01FC0700
03F00600
03E00600
0F800E00
1F000E00
0C000C00
00000C00
00001C00
00001C00
00001800
00001800
00003800
00003800
00003000
00003000
00007000
00007000
00006000
00006000
00006000
00002000
ENDCHAR
STARTCHAR C113
ENCODING 113
SWIDTH 620 0
DWIDTH 31 0
BBX 26 32 7 2
BITMAP
00001F00
00007F80
0001FF80
0203E0C0
030780C0
030701C0
018E03C0
61EE3F80
70FFFF00
607FFC00
601FC000
E0380000
E0380000
C0300300
C0700700
C0701F00
C0603F80
C061F980
C07FF180
C03FC180
403E0180
60000380
60000380
60000700
20000700
30000E00
18001E00
1C003C00
0F01F800
07FFF000
03FFC000
00FE0000
ENDCHAR
STARTCHAR C114
ENCODING 114
SWIDTH 500 0
DWIDTH 25 0
BBX 27 32 6 -1
BITMAP
7FFFFFE0
7FFFFFE0
00000600
00000C00
00000C00
00007C00
0001EC00
00079800
001C1800
00701800
01E01800
03803000
0E003000
1C003000
70003000
E0006000
78006000
1C006000
07006000
0380C000
00C0C000
0060C000
0030C000
00198000
00198000
000D8000
1E0D8000
3F070000
7F070000
7F030000
7E020000
3C000000
ENDCHAR
STARTCHAR C115
ENCODING 115
SWIDTH 600 0
DWIDTH 30 0
BBX 31 32 7 -1
BITMAP
FFFFFFFE
FFFFFFFE
1FC00060
01E000C0
007000C0
003000C0
001000C0
00180180
00180180
00080180
00080180
000BE300
000FF300
001F1B00
003C0B00
00780E00
00F00600
C1E00600
47C00600
7F800C00
3E000C00
00000C00
00000C00
00001800
00001800
00001800
00001800
00003000
00003000
00003000
00003000
00002000
ENDCHAR
STARTCHAR C116
ENCODING 116
SWIDTH 600 0
DWIDTH 30 0
BBX 31 29 7 2
BITMAP
FFFFFFFE
FFFFFFFE
00000000
00000000
40000000
40000000
4001E000
4007F800
400FFC00
401FDE00
403FC600
403FC300
403F8300
403F0100
601E0100
60000100
20000300
20000300
20000200
30000600
30000600
18000C00
18001C00
0C003800
0E007000
0781E000
03FFC000
01FF8000
007E0000
ENDCHAR
STARTCHAR C117
ENCODING 117
SWIDTH 0 0
DWIDTH 0 0
BBX 19 16 -16 -15
BITMAP
001000
003800
3F3000
7FF000
E0F000
C07000
C0F800
C1CC00
7F8400
3F0600
000300
000180
000080
0000C0
000060
000020
ENDCHAR
STARTCHAR C118
ENCODING 118
SWIDTH 620 0
DWIDTH 31 0
BBX 32 29 7 2
BITMAP
FFFFFFFF
FFFFFFFF
00000000
00000000
40000000
E0000000
C0000000
C01E0000
C03F0000
C07F0000
C07F0300
C0FF0700
C0FE0F80
C0FE3C80
C0FFF8C0
C07FF0C0
400FC0C0
600000C0
600000C0
600001C0
20000180
30000380
10000700
18000E00
0C003C00
0F01F800
07FFF000
03FFC000
00FE0000
ENDCHAR
STARTCHAR C119
ENCODING 119
SWIDTH 0 0
DWIDTH 0 0
BBX 17 13 -3 34
BITMAP
00E000
01F000
C3F080
C3F080
83E180
81C180
C00300
C00700
600E00
783C00
3FF800
1FF000
07C000
ENDCHAR
STARTCHAR C120
ENCODING 120
SWIDTH 520 0
DWIDTH 26 0
BBX 27 32 7 0
BITMAP
00F00000
01F803E0
01F807E0
03F80600
02700C00
02000C00
02007C00
0301EC00
01C79800
007E1800
00781800
01E01800
03803000
0E003000
1C003000
70003000
E0006000
78006000
1E006000
07006000
0180C000
00C0C000
0060C000
0030C000
00198000
00198000
000D8000
000D8000
00070000
00070000
00030000
00020000
ENDCHAR
STARTCHAR C121
ENCODING 121
SWIDTH 540 0
DWIDTH 27 0
BBX 29 32 6 -1
BITMAP
7FFFFFF8
7FFFFFF8
3C000180
07000300
01C00300
00E00300
00700300
00380600
001C0600
001C0600
007C0600
00F80C00
03E00C00
07C00C00
0F000C00
3E001800
7C001800
F0001800
7C001800
0F003000
03C03000
00E03000
00303000
00186000
000C6000
00066000
07036000
0F83C000
1F81C000
1F81C000
1F01C000
0E008000
ENDCHAR
STARTCHAR C122
ENCODING 122
SWIDTH 580 0
DWIDTH 29 0
BBX 28 33 9 -1
BITMAP
00000300
07F003F0
1FFC03F0
3C060700
70020700
78030600
FC030600
FC030E00
78070E00
00060C00
000E0C00
001C1C00
00781C00
01F01800
07C01800
3F003800
FC003800
FC003000
1F003000
03C07000
00E07000
00306000
00186000
000CE000
0006E000
0002C000
0003C000
0001C000
0001C000
00018000
00018000
00018000
00008000
ENDCHAR
STARTCHAR C123
ENCODING 123
SWIDTH 600 0
DWIDTH 30 0
BBX 31 1 3 15
BITMAP
FFFFFFFE
ENDCHAR
STARTCHAR C124
ENCODING 124
SWIDTH 1100 0
DWIDTH 55 0
BBX 56 1 3 15
BITMAP
FFFFFFFFFFFFFF
ENDCHAR
STARTCHAR C125
ENCODING 125
SWIDTH 500 0
DWIDTH 25 0
BBX 29 35 4 -4
BITMAP
1FFFFFF8
1FFFFFF8
00180000
000FC000
003FF000
00FC1800
01FC0800
03F80C00
03F00C00
03C01C00
00001C00
00003800
00007800
0001F000
0E07E000
07FFC000
01FE0000
00600000
00380000
000C0000
00070000
00018000
0000C000
0F806000
3FDF7000
78FFF800
E071E000
F820C000
FC20C000
FC00C000
FC00C000
F8018000
70018000
00018000
00018000
ENDCHAR
STARTCHAR C126
ENCODING 126
SWIDTH 640 0
DWIDTH 32 0
BBX 28 10 6 10
BITMAP
03E00000
0FF00000
1FF80000
383C0010
600E0020
C00F00C0
8007C380
0003FF00
0001FE00
00007800
ENDCHAR
STARTCHAR C127
ENCODING 127
SWIDTH 980 0
DWIDTH 49 0
BBX 50 38 7 -6
BITMAP
00000000000C00
FFFFFFF3F80FC0
FFFFFFFFFE0FC0
0001003F030C00
0001007C019800
000300F0009800
000301E000D800
000201C0005800
000203F0007000
000603FC007000
00060386003000
00040702003000
00041F03006000
000C7D83006000
000DF983006000
400FE087006000
400F808700C000
4006008E00C000
4000009E00C000
4000019C00C000
40000180018000
60000300018000
60000300018000
30000700018000
38000E00030000
1C003C00030000
0F01F800030000
07FFF000030000
03FFC000060000
00FE0000060000
00000000060000
00000000060000
00780000040000
00FC0000000000
01FC0000000000
01FC0000000000
01F80000000000
00F00000000000
ENDCHAR
STARTCHAR C128
ENCODING 128
SWIDTH 700 0
DWIDTH 35 0
BBX 36 32 7 -1
BITMAP
FFFFFFFFF0
FFFFFFFFF0
0000060000
00001F8000
0000FFE000
0003FCF000
001F8C3800
007E0C1C00
01F00C0C00
07C0183C00
1F00187C00
3C0018FC00
3000FEFC00
3803FFF800
1C1FB3F000
0E7E318000
06F031C000
07C060C000
0F8060C000
1E0060C000
1F0060C000
03C0C7C000
01E0CFC000
0070CF8000
0038CF8000
001D870000
000F800000
0007800000
0007800000
0003000000
0003000000
0003000000
ENDCHAR
STARTCHAR C129
ENCODING 129
SWIDTH 540 0
DWIDTH 27 0
BBX 28 46 7 -2
BITMAP
08000000
0E000000
07800000
01F00000
007FF000
000FFE00
00000F00
00000180
00000080
00000040
00000040
00000040
000000C0
FFFFFFF0
FFFFFFF0
00018000
00030000
001FC000
007FE000
01F37000
07C63800
1F061800
7C067800
7C06F800
1E0DF800
070DF800
038DF000
01CCE000
00F80000
00780000
00780000
00780000
01F00000
07F38000
0F87C000
1E0FE000
3C0FE000
380FC000
3007C000
30038000
30078000
300F0000
183E0000
1FFC0000
0FF00000
07C00000
ENDCHAR
STARTCHAR C130
ENCODING 130
SWIDTH 740 0
DWIDTH 37 0
BBX 38 30 7 1
BITMAP
FFFFFFFFFC
FFFFFFFFFC
0000000000
0007F80000
001FFC0000
007FFC0000
01F8060000
43E0060000
678006F800
E7800FFC00
EFC01F0600
CFC01C1F00
CF87B83F00
C70FF87F00
C01FF0FF00
C01FC0FF00
C01FC0FE00
C01FE0FC00
C00F207800
C000300000
4000300000
6000700000
6000700000
2000E00000
3001E00000
1803C00000
1E0F800000
0FFF000000
07FC000000
01F0000000
ENDCHAR
STARTCHAR C131
ENCODING 131
SWIDTH 700 0
DWIDTH 35 0
BBX 36 32 7 -1
BITMAP
FFFFFFFFF0
FFFFFFFFF0
0000060000
00001F8000
0000FFE000
0003FCF000
001F8C3800
007E0C1800
01F00C1C00
07C0180C00
1F00180C00
3C00180C00
3000F87C00
3803F0FC00
1C1FB1F800
0E7E31F800
06F031F000
07C060E000
0F80600000
1E00600000
1F00600000
03C0C00000
01E0C00000
0070C00000
0038C00000
001D800000
000F800000
0007800000
0007800000
0003000000
0003000000
0003000000
ENDCHAR
STARTCHAR C132
ENCODING 132
SWIDTH 680 0
DWIDTH 34 0
BBX 35 32 7 -1
BITMAP
FFFFFFFFE0
FFFFFFFFE0
0000C00600
0003800C00
001FE00C00
00FFF80C00
03F1BC0C00
0F830E1800
3E03061800
7803061800
7C033E1800
1F067E3000
0786FC3000
01C6FC3000
00E6F83000
007C706000
003C006000
003C006000
001C006000
003F00C000
007FC0C000
00FFF0C000
00FFF8C000
00FF1D8000
00FE0D8000
007C078000
0000078000
0000030000
0000030000
0000030000
0000030000
0000020000
ENDCHAR
STARTCHAR C133
ENCODING 133
SWIDTH 840 0
DWIDTH 42 0
BBX 44 32 6 -1
BITMAP
7FFFFFFFFFF0
7FFFFFFFFFF0
000000000000
00001F800000
00007FE00000
0001F8300000
0003E0300000
000780300000
000F0073E000
001E007FF000
001C007C1800
103F80707C00
303FC0E1FC00
303FC0E3FC00
603FC0C7FC00
603FC0C7FC00
C01F81C7F800
C00F01C7F000
80000183C000
800001800000
800003800000
800003800000
C00003000000
C00003000000
600007000000
7C0007000000
3FFFE6000000
1FFFFE000000
03FFFE000000
00001E000000
00000C000000
00000C000000
ENDCHAR
STARTCHAR C134
ENCODING 134
SWIDTH 640 0
DWIDTH 32 0
BBX 36 32 4 -1
BITMAP
1FFFFFFFF0
1FFFFFFFF0
0000018000
0000038000
00001FE000
0000FFF000
0003F33800
000F831C00
003E030C00
00F8060C00
00FC063C00
001F067C00
000786FC00
0001CCFC00
0000ECF800
00007C7000
00003C0000
0000380000
0000180000
0000180000
0FC7980000
3FEFF00000
787CF00000
F838700000
FC10700000
FC00600000
FC00600000
F800600000
7000600000
0000C00000
0000C00000
0000400000
ENDCHAR
STARTCHAR C135
ENCODING 135
SWIDTH 820 0
DWIDTH 41 0
BBX 42 32 7 -1
BITMAP
FFFFFFFFFFC0
FFFFFFFFFFC0
0600E0600000
0600C0600000
060080C00000
060080C00000
1FC0C0C00000
3FF0F0FE0000
7F187FFF8000
7F0C3FFFC000
7F040F81E000
7E0601806000
3C0603002000
000603002000
000603072000
000E030FE000
000C061FE000
01FC061FC000
03F8061F8000
07FE061F0000
07FB8C0E0000
07F8CC000000
07F06C000000
03E06C000000
000038000000
000038000000
000038000000
000038000000
000030000000
000030000000
000030000000
000020000000
ENDCHAR
STARTCHAR C136
ENCODING 136
SWIDTH 740 0
DWIDTH 37 0
BBX 38 36 7 -5
BITMAP
FFFFFFFFFC
FFFFFFFFFC
0601830000
0601830000
0601030000
1FC1060000
3FF1860000
7F19FFE000
7F08FFF800
7F0C7FFC00
7E0C0C1E00
3C0C0C0600
000C0C0200
001C187A00
001818FE00
01F819FE00
03F019FC00
07F831F800
07FE30F000
07F3300000
07E1B00000
03C0E00000
0000E00000
07E0E00000
1FF8E00000
3FFCC00000
7F1EC00000
7F06C00000
7F03C00000
7E03800000
3C01800000
0001800000
0001800000
0003000000
0003000000
0001000000
ENDCHAR
STARTCHAR C137
ENCODING 137
SWIDTH 840 0
DWIDTH 42 0
BBX 43 40 7 -9
BITMAP
FFFFFFFFFFE0
FFFFFFFFFFE0
0601C1800600
060181800C00
060101800C00
1FE103000C00
3FF983000C00
7F0DFFF01800
7F04FFFC1800
7F067FFE1800
7E06060F1800
3C0606033000
000606013000
000E0C1D3000
000C0C3F3000
01FC0C7F6000
03F80C7E6000
07FC187C6000
07FF18386000
07F19800C000
07E0D800C000
03C07000C000
00007000C000
000070018000
000070018000
000FF0018000
001FFE018000
003FFF830000
003FEFC30000
003FC1E30000
003F80730000
001F003E0000
0000001E0000
0000000E0000
0000000E0000
0000000C0000
0000000C0000
0000000C0000
0000000C0000
000000080000
ENDCHAR
STARTCHAR C138
ENCODING 138
SWIDTH 660 0
DWIDTH 33 0
BBX 34 32 7 -1
BITMAP
FFFFFFFFC0
FFFFFFFFC0
0001800C00
0003801800
000FE01800
007FF01800
01FB381800
07C31C3000
1F030C3000
3C033C3000
78067C3000
7E06FC6000
0F06FC6000
0386F86000
01CC706000
00EC00C000
007DF0C000
003FFCC000
003F86C000
001F038000
403C038000
60F8018000
63F0018000
3FC0030000
0F00030000
0000030000
0000030000
0000060000
0000060000
0000060000
0000060000
0000040000
ENDCHAR
STARTCHAR C139
ENCODING 139
SWIDTH 640 0
DWIDTH 32 0
BBX 31 33 9 -1
BITMAP
00000C00
01F80FFE
07FE0FFE
1F830C00
3E019800
7800D800
70005800
FC007800
FF003000
61803000
00803000
00C03000
00C06000
01C06000
03C06000
07806000
0700F000
0003FE00
000FDE00
003F8600
00F98600
03E18C00
0F818C00
0F830C00
03C31800
00E31800
00731800
003E1800
001E3000
001E3000
000E3000
000C3000
000C0000
ENDCHAR
STARTCHAR C140
ENCODING 140
SWIDTH 560 0
DWIDTH 28 0
BBX 29 33 7 -1
BITMAP
00000180
007F01F8
03FFC1F8
0FE06180
1F003300
3C001B00
38000B00
3F000F00
3FC00600
10600600
00200600
00300600
00300C00
00700C00
00F00C00
01E00C00
01C01800
00001800
00001800
07E01800
1FF83000
3FFC3000
7E1E3000
FE073000
FE036000
FE01E000
FC01E000
7800E000
0000C000
0000C000
0000C000
0000C000
00008000
ENDCHAR
STARTCHAR C141
ENCODING 141
SWIDTH 560 0
DWIDTH 28 0
BBX 27 33 9 -1
BITMAP
00000600
01FC07E0
0FFF07E0
3F818600
7C00CC00
F0006C00
E0002C00
FC003C00
FF001800
41801800
00801800
00C01800
00C03000
01C03000
03C03000
07803000
07006000
0001E000
0007E000
003F6000
00FCC000
01E0C000
0780C000
07C0C000
01E18000
00718000
00398000
001D8000
000F0000
000F0000
00070000
00070000
00060000
ENDCHAR
STARTCHAR C142
ENCODING 142
SWIDTH 700 0
DWIDTH 35 0
BBX 35 33 8 -1
BITMAP
0000030000
01FE03FFE0
07FF83FFE0
1F80C60600
3E00660C00
7800360C00
F000160C00
FC001C0C00
FF000C1800
41800C1800
00800C1800
00C0181800
00C0183000
01C0183000
03C0183000
0780303000
0700306000
0000306000
0000306000
0000306000
0003E0C000
0007E0C000
000FF0C000
001FF8C000
001FFD8000
001FCF8000
001F878000
000F038000
0000030000
0000030000
0000030000
0000030000
0000020000
ENDCHAR
STARTCHAR C143
ENCODING 143
SWIDTH 580 0
DWIDTH 29 0
BBX 32 33 5 -1
BITMAP
00000030
000FE03F
007FF83F
01FC0C30
03E00660
07800360
07000160
07E001E0
07F800C0
020C00C0
000400C0
000600C0
00060180
000E0180
001E0180
003C0180
00380300
00000300
00000300
0FE00300
3FF9E600
783FF600
E00F3E00
C0061E00
9C040C00
BE000C00
FE000C00
FE000C00
7C001800
38001800
00001800
00001800
00001000
ENDCHAR
STARTCHAR C144
ENCODING 144
SWIDTH 520 0
DWIDTH 26 0
BBX 27 35 7 -4
BITMAP
FFFFFFE0
FFFFFFE0
0F000600
0E000C00
1C000C00
1C000C00
18000C00
18081800
183C1800
0FFC1800
03F81800
03E03000
07C03000
1F003000
3E003000
3F006000
01C06000
00706000
00186000
000CC000
0006C000
07C3C000
1FF1C000
3FF98000
7F3D8000
FF0D8000
FF078000
FE070000
FC030000
78030000
00030000
00060000
00060000
00060000
00040000
ENDCHAR
STARTCHAR C145
ENCODING 145
SWIDTH 600 0
DWIDTH 30 0
BBX 31 32 7 -1
BITMAP
FFFFFFFE
FFFFFFFE
0000600C
00003018
07F03018
1FFC1870
3FFE0FE0
7F0F0780
7F038000
7F018000
7E008000
3C008000
0000C000
0001E000
000FF800
007FBC00
01F98C00
07C30E00
1F030600
7C030600
70030600
7C063E00
1F067E00
0786FC00
01C6FC00
00ECF800
007C7000
003C0000
003C0000
00180000
00180000
00180000
ENDCHAR
STARTCHAR C146
ENCODING 146
SWIDTH 1220 0
DWIDTH 61 0
BBX 60 35 9 -1
BITMAP
0001E00000000000
0007F00000000000
000FF00000000000
081E1FFFFFFFFFF0
0C1C3FFFFFFFFFF0
063878C018180000
47BBF0C018180000
63FFE04010180000
E1FF806010180000
E07C03F818300000
C06007FE1C3F8000
C0602FE30FFFE000
C0E07FE187FFF000
C0E0FFE083E07800
C0C1FFC0C0601800
C0C7DF80C0600800
C0FF9800C0600800
C07E1800C0C1C800
40783801C0C3F800
6000380180C7F800
6000703F80C7F000
2000F07F0187E000
3001E0FFC187C000
1803C0FF71838000
1E0F80FF19800000
0FFF00FE0F000000
07FC007C0F000000
01F0000007000000
0000000007000000
0000000006000000
0000000006000000
0000000006000000
000000000E000000
000000000C000000
0000000004000000
ENDCHAR
STARTCHAR C147
ENCODING 147
SWIDTH 800 0
DWIDTH 40 0
BBX 41 35 7 -1
BITMAP
000078000000
0001FC000000
0003FC001800
FE0786001F80
FF070E001F80
018E1E001800
19EE7C003000
18FFF8003000
187FE0003000
181F80003000
183810006000
183838006000
18307C006000
1831FE006000
183FEF00C000
181F8D80C000
081E1D80C000
0C001CC0C000
0C0038C18000
040078C18000
0600F0C18000
0383E1818000
03FFC3030000
01FF0E030000
007C1C030000
000030030000
00003C060000
00000F060000
000003860000
000000C60000
0000006C0000
0000003C0000
0000001C0000
0000001C0000
000000080000
ENDCHAR
STARTCHAR C148
ENCODING 148
SWIDTH 580 0
DWIDTH 29 0
BBX 32 32 5 -1
BITMAP
3FFFFFFF
3FFFFFFF
03018030
0100C060
0180C060
07E061C0
0FF03F80
1FC81EE0
1FC401F0
1F8607E0
0F060FC0
00063FC0
0006FF80
000FF700
000FC700
001F8E00
003E0E00
007C0C00
01F01C00
03E01C00
0F801800
1F001800
FC001800
78003800
00003800
00003000
00003000
00003000
00003000
00003000
00003000
00001000
ENDCHAR
STARTCHAR C149
ENCODING 149
SWIDTH 900 0
DWIDTH 45 0
BBX 44 35 9 -1
BITMAP
0003C0000000
000FE0000000
001FE0000000
183C3FFFFFF0
08387FFFFFF0
0C70FF000300
C773FE000600
C7FFDC000600
C3FF38000600
C0FC38000600
C0C030000C00
C1C070000C00
C1C0F81C0C00
C181EFFE0C00
C183F3FC1800
C18FB0F81800
C1FF31E01800
C0FC33C01800
C0F037803000
40007F003000
60007E003000
6000F8003000
2001FC006000
3003C7006000
1C0F81C06000
1FFF00606000
0FFC0030C000
03F00018C000
0000000CC000
00000004C000
000000078000
000000038000
000000038000
000000018000
000000018000
ENDCHAR
STARTCHAR C150
ENCODING 150
SWIDTH 640 0
DWIDTH 32 0
BBX 31 35 9 -1
BITMAP
0003C000
000FE000
001FE000
103C3FFE
18387FFE
0C70F060
CF73E0C0
C7FFC0C0
C3FF00C0
C0FC00C0
C1C08180
C1C1C180
C183C180
C18FE180
C1FF6300
C0FC6300
40F0E300
6000E300
6001C600
2003C600
30078600
1C1F0600
1FFE0C00
0FF80C00
03FC0C00
01FF0C00
03FF9800
03FBD800
03F8F800
03F07800
01E03000
00003000
00003000
00003000
00002000
ENDCHAR
STARTCHAR C151
ENCODING 151
SWIDTH 740 0
DWIDTH 37 0
BBX 38 31 7 0
BITMAP
FFFFFFFFFC
FFFFFFFFFC
0C00C00000
1C00E00000
1C00E00000
1E00E00000
1F81E00000
3BE1F00000
39FDB80000
307F9E0000
301F8FC000
700F87F800
701F01FC00
601F003E00
603F000E00
E07F000E00
E0F6001C00
C1E6003C00
C7CE003800
DF8E007000
FE0C00F000
780C01E000
601C03C000
001C078000
00181F0000
00183E0000
0018F80000
0019F00000
001FC00000
000F800000
000E000000
ENDCHAR
STARTCHAR C152
ENCODING 152
SWIDTH 740 0
DWIDTH 37 0
BBX 38 32 7 -1
BITMAP
FFFFFFFFFC
FFFFFFFFFC
0C00C00000
1C00E00000
1C00E00000
1E00E00000
1F80F00000
3BE1DFF000
39FDC7FC00
307F838600
301F838600
700F870600
701F8F0E00
601F1E0E00
603B7C1C00
E07BF83C00
E0F1E07800
C1E000F000
C7C003E000
DF801FC000
FE01FF0000
7800F80000
6000300000
0000180000
00000C0000
0000060000
0000020000
0000030000
0000018000
0000008000
000000C000
0000006000
ENDCHAR
STARTCHAR C153
ENCODING 153
SWIDTH 720 0
DWIDTH 36 0
BBX 37 36 7 -5
BITMAP
FFFFFFFFF8
FFFFFFFFF8
1C00C00000
1C00C00000
1C00C00000
1F01C00000
3FC1F00000
3BFDBFF000
30FD87FC00
703F838600
700F870600
601F8F0E00
603F1E0E00
E07B7C1C00
E0F3F83C00
C1E1E0F800
C7C003F000
DF801FC000
FE01FF8000
7801F80000
6000600000
0000300000
0000180000
00000C0000
0000060000
0000030000
0000038000
00007F8000
0003FFC000
000FC60000
000FC60000
0001E60000
0000760000
00003C0000
00001C0000
00000C0000
ENDCHAR
STARTCHAR C154
ENCODING 154
SWIDTH 640 0
DWIDTH 32 0
BBX 35 32 5 -1
BITMAP
3FFFFFFFE0
3FFFFFFFE0
01C0000000
01C0000000
01E0000000
01FC000000
03BF800000
039F800000
0303C00000
0301C00000
0703800000
0707800000
060F000000
063F03C000
06FF8FE000
07F8DC2000
03E0F02000
03C1E02000
23E1C3E000
63F187C000
63F187C000
C1F387C000
C1E383C000
8003C0C000
8003618000
80073F0000
C0071E0000
FFFE000000
7FFE000000
3FFE000000
000C000000
0004000000
ENDCHAR
STARTCHAR C155
ENCODING 155
SWIDTH 940 0
DWIDTH 47 0
BBX 48 32 7 -1
BITMAP
FFFFFFFFFFFF
FFFFFFFFFFFF
007000000000
00F800000000
01CC00000000
218780180000
6303FFF80000
63007FF00000
420200F00000
430E01F00000
43FF03980000
41FF870E0000
60F18607FF80
60018C01FF80
30038C000300
380788060700
1E1E8C1E0600
0FFC8FFF0E00
07F887FB0C00
01E0C3E10C00
0000C0011C00
000040031800
000060031800
000070063800
00003C1E3000
00001FFC3000
00000FF83000
000003E07000
000000006000
000000006000
000000006000
000000002000
ENDCHAR
STARTCHAR C156
ENCODING 156
SWIDTH 940 0
DWIDTH 47 0
BBX 48 38 7 -7
BITMAP
FFFFFFFFFFFF
FFFFFFFFFFFF
007000000000
00F800000000
01CC00000000
218780180000
6303FFF80000
63007FF00000
420200F00000
430E01F00000
43FF03980000
41FF870E0000
60F18607FFC0
60018C01FFC0
30038C000180
380788060380
1E1E8C1E0300
0FFC8FFF0700
07F887FB0600
01E0C3E10600
0000C0010E00
000040030C00
000060030C00
000070061C00
00003C1E1800
00001FFC3800
00000FF8F800
000003E3F000
0000000F3000
0000001C3000
000000703000
000000E03000
000000F06000
0000007C6000
0000000F6000
00000003E000
00000000E000
000000004000
ENDCHAR
STARTCHAR C157
ENCODING 157
SWIDTH 1200 0
DWIDTH 60 0
BBX 61 33 7 -1
BITMAP
0000000000000180
FFFFFFFFFFFF01F8
FFFFFFFFFFFF81F8
0007000000018180
000F000000018300
001D000000030300
00390000000F0300
00718000007F0300
20E0E00001FB0600
20C07FF807C60600
61801FF81F060600
618000387C060600
41000030F0060C00
41006073C00C0C00
4183E06F800C0C00
41FFE0FE000C0C00
40FFB0FC000C1800
407C30FF00181800
600011C7C0181800
60001181E0181800
3000318070183000
30003380383C3000
180063001C3C3000
1C00E3000E363000
0F03C30006366000
07FF870007636000
03FF060003636000
00FC060003E1E000
0000060001E1C000
0000060001C1C000
0000060001C0C000
0000060000C00000
0000060000C00000
ENDCHAR
STARTCHAR C158
ENCODING 158
SWIDTH 740 0
DWIDTH 37 0
BBX 38 27 7 4
BITMAP
FFFFFFFFFC
FFFFFFFFFC
001F000000
003D800000
0079800000
00E1800000
01C0C03C00
4180C07E00
4300C1C300
C300638100
C200660100
82006C0100
8200F83B00
8307F07E00
83FFC07C00
81FF607C00
80F8603C00
C000300400
C000300400
6000700400
6000780C00
3000CC1800
3801C7F000
1E0783E000
0FFF000000
07FE000000
01F8000000
ENDCHAR
STARTCHAR C159
ENCODING 159
SWIDTH 720 0
DWIDTH 36 0
BBX 37 37 7 -6
BITMAP
FFFFFFFFF8
FFFFFFFFF8
001E000000
003E000000
0072000000
00E2000000
01C3000000
4181800000
C300F00000
C3007FFE00
82000FFE00
8200000C00
8200C01C00
8307C01800
83FFC03800
81FF603000
80F8603000
C000207000
C000206000
600060E000
600060C000
3000C0C000
3801C3C000
1E078F8000
0FFF3D8000
07FEF18000
01F9C38000
0007030000
000E030000
0018030000
001E030000
0007870000
0001E60000
0000760000
00001E0000
00000E0000
0000060000
ENDCHAR
STARTCHAR C161
ENCODING 161
SWIDTH 600 0
DWIDTH 30 0
BBX 30 41 4 -8
BITMAP
000000F0
000003F8
007C0F0C
01FF1C04
03E1F004
07E1E004
07E180FC
07C381F8
038381F0
000701F0
000F8010
003E8010
00FCC030
01F07060
07C03FC0
0F800F80
1E018000
3C03C000
3807E000
300F2000
303E3000
30FC3000
1FF07000
07C0F000
0003E000
001FC000
01FF0000
FFF80000
7F800000
07800000
00E00000
00380000
000E0000
00030000
0001C000
00006000
00003000
00001800
00000C00
00000600
00000200
ENDCHAR
STARTCHAR C162
ENCODING 162
SWIDTH 680 0
DWIDTH 34 0
BBX 31 35 7 -1
BITMAP
000000F8
000003FC
00780F06
01FC3C02
03FE7002
0786C002
0E038006
0F07007C
0F8600F8
1F8E00F8
1F3E00F8
0E7B0008
00F10008
01C18018
0380C030
830070E0
86003FC0
86000FC0
84000180
86038180
87FFC300
83FFE300
C1FC6300
C0002600
60002600
70006600
3800EC00
1E03CC00
0FFF8C00
07FF0C00
01FC1800
00001800
00001800
00001800
00000800
ENDCHAR
STARTCHAR C163
ENCODING 163
SWIDTH 620 0
DWIDTH 31 0
BBX 28 32 7 -1
BITMAP
000F81E0
003FC7F0
007C7E10
00F0F810
18E0E3B0
19F0C7E0
31F0C7C0
30F1C7C0
20E1C3C0
2001C040
2003E0C0
3003BF80
3FFB1F00
1FFF0000
0FFF0000
00070000
001E3000
007E3000
03F63000
0FC63000
3E0C6000
F80C6000
FC0C6000
1E0C6000
071CC000
039CC000
01DEC000
00DBC000
00F38000
00718000
00710000
00300000
ENDCHAR
STARTCHAR C164
ENCODING 164
SWIDTH 560 0
DWIDTH 28 0
BBX 32 49 4 -5
BITMAP
01800000
01C00000
00700000
003E0000
000FFE00
0001FFC0
000001F0
00000038
00000008
00000004
00000004
00000004
0000000C
1FFFFFFF
1FFFFFFF
00300000
00300000
00700000
00700000
00600000
00600000
00E00000
00E00000
00C00700
00C00F80
01C01F80
01C01F80
01801F80
01800F80
01800700
03800F00
03800E00
03001C00
03003C00
07007800
0700F000
0603F000
0607F000
861F1000
C3FE1000
C3F83000
61E03000
60006000
3000E000
3803C000
1E0F8000
0FFF0000
07FC0000
01F00000
ENDCHAR
STARTCHAR C165
ENCODING 165
SWIDTH 500 0
DWIDTH 25 0
BBX 27 50 6 -6
BITMAP
10000000
1C000000
0F000000
03E00000
00FFE000
001FFC00
00001E00
00000300
00000100
00000080
00000080
00000080
00000180
7FFFFFE0
7FFFFFE0
06000000
06000000
06000000
0E000000
0E000000
0C000000
1C000000
1C00E000
1801F000
1803F000
3803F000
3803F000
3001F000
3000E000
7000E000
7001C000
6003C000
60078000
E00F0000
E01E0000
C07C0000
C0F80000
C3E10000
7FC30000
7F1F0000
3CFE0000
03F60000
07860000
07C60000
01EC0000
007C0000
003C0000
001C0000
00180000
00180000
ENDCHAR
STARTCHAR C166
ENCODING 166
SWIDTH 900 0
DWIDTH 45 0
BBX 46 29 7 2
BITMAP
FFFFFFFFFFFC
FFFFFFFFFFFC
001000040000
003000040000
003000040000
0020000C0000
0021800C0000
006380080000
006FC0080000
207EC0181800
207C40183800
207040107C00
2000C011EC00
2000C033C400
3001803F8400
3003803E0400
181F001C0400
1FFF80000400
0FF980000C00
07E080000C00
000080001800
0000C0001800
0000C0003000
000060007000
00007001E000
00003C07C000
00001FFF8000
00000FFE0000
000003F80000
ENDCHAR
STARTCHAR C167
ENCODING 167
SWIDTH 780 0
DWIDTH 39 0
BBX 38 45 9 0
BITMAP
0010000000
0008000000
000E000000
0007800000
0001F00000
00007FF800
00000FFF00
00000007C0
00000000E0
0000000020
0000000010
0000000010
0000000010
0000000030
03E07FFFFC
0FF8FFFFFC
1F0CC00000
3C06C00000
7803C00000
7003C00000
F801800000
FC01800000
FC03800000
FC03800000
F803000000
7007001C00
0007003E00
0006007E00
0006007E00
000E007E00
000E003C00
000C001C00
000C003800
001C003800
001C007000
001800F000
001801E000
003803C000
0038078000
00301F0000
00303E0000
0030F80000
001FF00000
001FC00000
000F000000
ENDCHAR
STARTCHAR C168
ENCODING 168
SWIDTH 600 0
DWIDTH 30 0
BBX 22 46 9 2
BITMAP
0000F0
0001F0
0001C0
000180
000380
000380
000300
000300
000700
000700
000600
000600
000600
000600
000600
03E600
0FFE00
1F0F00
3C0700
380700
780380
7C07C0
7C0740
7C0660
380E30
000E10
001C18
001C08
00380C
00380C
00700C
00F00C
01E01C
03C01C
078038
0F0038
3E0070
FC0070
F000E0
C001E0
C003C0
C00780
401F00
607E00
3FF800
0FE000
ENDCHAR
STARTCHAR C169
ENCODING 169
SWIDTH 620 0
DWIDTH 31 0
BBX 25 31 8 1
BITMAP
00780600
03FC0E00
07FE1F00
0F863D00
0F837980
5FC17180
FFC1E180
FFC1E180
DF80C380
CF000380
C0000700
C0000F00
C0000E00
C001FC00
C003FC00
C007F800
C007F800
C007FC00
C003CC00
40000600
60000600
60000600
60000E00
20000E00
30001C00
18003C00
1C007800
0F03F000
07FFE000
03FF8000
00FC0000
ENDCHAR
STARTCHAR C170
ENCODING 170
SWIDTH 520 0
DWIDTH 26 0
BBX 28 34 6 -1
BITMAP
00000100
00000300
001F03F0
007FC3F0
01F86300
03E03600
07801E00
07000E00
0F800E00
0FC00C00
1FC00C00
0FC00C00
0F800C00
07001800
00001800
00001800
00001800
01F83000
07FE3000
1F833000
3E01B000
7800E000
7000E000
F8006000
FC006000
FC00C000
FC00C000
F800C000
7000C000
00018000
00018000
00018000
00018000
00010000
ENDCHAR
STARTCHAR C171
ENCODING 171
SWIDTH 640 0
DWIDTH 32 0
BBX 31 33 9 -1
BITMAP
00003000
03F03FFE
0FFC7FFE
1F066060
3C0360C0
780160C0
7001C0C0
F800C0C0
FC00C180
FC00C180
FC018180
F8018180
70018300
00018300
00030300
00030300
00030600
00030600
000F0600
003F0600
007F8C00
00FFCC00
00FECC00
00FE6C00
00FC7800
00783800
00003800
00003800
00003000
00003000
00003000
00003000
00002000
ENDCHAR
STARTCHAR C172
ENCODING 172
SWIDTH 560 0
DWIDTH 28 0
BBX 29 30 7 1
BITMAP
FFFFFFF8
FFFFFFF8
00000000
0003F800
000FFC00
003FFC00
00FC0600
21F00600
63C00600
77C00E00
67E01E00
67E01C00
67C7B800
638FF800
601FF000
601FC000
601FC000
601FE000
600F2000
60003000
60003000
20007000
30007000
3000E000
1001E000
1803C000
0E0F8000
0FFF0000
07FC0000
01F00000
ENDCHAR
STARTCHAR C173
ENCODING 173
SWIDTH 540 0
DWIDTH 27 0
BBX 28 35 7 -4
BITMAP
FFFFFFF0
FFFFFFF0
00000000
0007F000
003FF800
00FFF800
21F80C00
73C00C00
77E01C00
67E03C00
67E7F800
67CFF000
639FE000
601FC000
601FC000
601FE000
200F2000
30003000
30007000
10007000
1800E000
0C01E000
0F07C000
07FF8000
03FF8000
00FF8000
01FF0000
07E30000
07C30000
01E30000
00760000
003E0000
001E0000
000E0000
000C0000
ENDCHAR
STARTCHAR C174
ENCODING 174
SWIDTH 620 0
DWIDTH 31 0
BBX 30 33 9 -1
BITMAP
000000C0
078100FC
1FC380FC
3C67C1C0
706E41C0
7C2C6180
7C3C6180
FC38E380
7810C380
0001C300
00038300
00070700
001E0700
007C0600
03F00600
1FC00E00
3E000E00
3F000C00
0FC00C00
01F01C00
00381C00
000C1800
00061800
00033800
0001B800
0000B000
0000F000
00007000
00007000
00006000
00006000
00006000
00002000
ENDCHAR
STARTCHAR C175
ENCODING 175
SWIDTH 580 0
DWIDTH 29 0
BBX 30 32 7 -1
BITMAP
FFFFFFFC
FFFFFFFC
0000F800
2003FC00
3007FE00
300FF700
180FF300
180FF100
0C0FE100
0C07C100
06000300
06000300
03000600
03800E00
01C01C00
00F07800
007FF800
003FF000
000FB000
07F03000
1FFC3000
3FFE6000
7F8F6000
7F836000
7F81E000
7F01C000
3E00C000
0000C000
0000C000
00018000
00018000
00008000
ENDCHAR
STARTCHAR C176
ENCODING 176
SWIDTH 600 0
DWIDTH 30 0
BBX 31 32 7 -1
BITMAP
FFFFFFFE
FFFFFFFE
00007C00
2000FE00
3001FF00
3003FB80
1007F980
1807F880
1807F080
0C07E080
0C03C180
06000180
06000300
03000300
03800600
01C00E00
00F03C00
007FF800
003FF800
000FF800
000FF000
003F3000
01F83000
01F83000
003C6000
000E6000
00076000
0003E000
0001C000
0001C000
0000C000
0000C000
ENDCHAR
STARTCHAR C177
ENCODING 177
SWIDTH 740 0
DWIDTH 37 0
BBX 38 32 7 -1
BITMAP
FFFFFFFFFC
FFFFFFFFFC
00007C00C0
2001FE0180
3003FF0180
3007FB8180
1807F98180
1807F88300
0C07F08300
0C03E08300
0600018300
0600018600
0300030600
0380070600
01C00E0600
00F83C0C00
007FF80C00
001FF00C00
0007C00C00
0007E01800
000FF81800
001FFE1800
001FDF1800
001FC7B000
001F81F000
000F00F000
0000007000
0000006000
0000006000
0000006000
0000006000
0000004000
ENDCHAR
STARTCHAR C178
ENCODING 178
SWIDTH 660 0
DWIDTH 33 0
BBX 34 32 7 -1
BITMAP
FFFFFFFFC0
FFFFFFFFC0
0000000000
00001FC000
00007FF000
0001F81800
0003E01800
0007801800
000F003800
001E003800
001C003000
303F807000
303FC07000
603FC06000
603FC06000
403FC0E000
C01F80E000
C00F00C000
800000C000
800001C000
800001C000
8000018000
C000018000
C000038000
6000038000
7E00030000
3FFFFF0000
1FFFFF0000
01FFFE0000
0000060000
0000060000
0000060000
ENDCHAR
STARTCHAR C179
ENCODING 179
SWIDTH 800 0
DWIDTH 40 0
BBX 42 32 6 -1
BITMAP
7FFFFFFFFFC0
7FFFFFFFFFC0
000000000000
00001F000000
00007FC00000
0001F8600000
0003E060F000
00078061F800
000F00E3FC00
000E00E3FC00
001C00C3FC00
103F00C3EC00
303F81C1CC00
303F81C01800
603F81801800
603F81803000
C03F03C0E000
C01E03FFC000
8000033F0000
800003000000
800007000000
800007000000
C00006000000
C00006000000
60000E000000
7C000E000000
3FFFCC000000
1FFFFC000000
03FFFC000000
00003C000000
000018000000
000008000000
ENDCHAR
STARTCHAR C180
ENCODING 180
SWIDTH 860 0
DWIDTH 43 0
BBX 45 33 6 -1
BITMAP
000000000180
7FFFF07F01F8
7FFFF1FFC1F8
0C0007E06180
0C000F803300
0C001E001300
0C003C001B00
180038000B00
18007E000E00
1801FF800600
1803C0C00600
300F80400600
303F80600C00
307980600C00
30E300E00C00
63C300E00C00
678601C01800
6E0603C01800
7C0C01801800
F80C00001800
F00C00003000
E01800003000
401800003000
001800003000
001800006000
003000006000
003000006000
003000006000
00300000C000
00300000C000
00600000C000
00600000C000
002000008000
ENDCHAR
STARTCHAR C181
ENCODING 181
SWIDTH 840 0
DWIDTH 42 0
BBX 44 32 6 -1
BITMAP
7FFFFFFFFFF0
7FFFFFFFFFF0
0C000F000300
0C001E000600
0C001C000600
0C0038000600
180038000600
180030000C00
1801F0000C00
1803D81C0C00
300F8FFC0C00
303F83FC1800
307980F81800
31E301E01800
63C303C01800
67060F803000
6E061F003000
7C0C3C003000
F80C78003000
F00C3C006000
E01807006000
C01801C06000
001800606000
00180030C000
00300018C000
0030000CC000
00300004C000
003000078000
003000038000
006000038000
006000018000
002000018000
ENDCHAR
STARTCHAR C182
ENCODING 182
SWIDTH 580 0
DWIDTH 29 0
BBX 30 32 7 -1
BITMAP
FFFFFFFC
FFFFFFFC
18000000
18000000
30000000
301C0000
307C0000
31FC0000
67D80200
6F180F00
7C301E00
78303E00
F030FC00
E061EC00
40639800
00671800
00CE3000
00DC3000
00F83000
00F06000
00E06000
00406000
00006000
0000C000
0000C000
0000C000
0000C000
00018000
00018000
00018000
00018000
00008000
ENDCHAR
STARTCHAR C183
ENCODING 183
SWIDTH 620 0
DWIDTH 31 0
BBX 32 32 7 -1
BITMAP
FFFFFFFF
FFFFFFFF
0C000000
18000000
18000000
18000000
18000000
30000000
3003C000
301FE000
307C6000
61E06000
67806000
6E00FF80
7807FF80
F01FC180
407CC300
01F0C300
07C18300
0F018300
3C018600
3F018600
07830600
01C30C00
00E30C00
00730C00
003E0C00
001E1800
001E1800
000E1800
000C1800
000C0000
ENDCHAR
STARTCHAR C184
ENCODING 184
SWIDTH 520 0
DWIDTH 26 0
BBX 27 32 7 -1
BITMAP
FFFFFFE0
FFFFFFE0
18000000
18000000
18000000
18000000
30000000
30000000
3001E000
300FF000
607E3000
61F03000
67803000
6E003000
F801F000
F00FE000
403F6000
00F86000
03E06000
0F80C000
1E00C000
1F80C000
03C0C000
00E18000
00718000
00398000
001D8000
000F0000
000F0000
00070000
00070000
00060000
ENDCHAR
STARTCHAR C185
ENCODING 185
SWIDTH 620 0
DWIDTH 31 0
BBX 33 32 6 -1
BITMAP
7FFFFFFF80
7FFFFFFF80
0600000000
0600000000
0600000000
0603C00000
0C0FC00000
0C3F800000
0CF9800000
0DE3000000
1B83000000
1F06000000
1E06000000
1806000000
000C000000
407C000000
C0FC0C0000
C1FC1C0000
41FC7E0000
61FDF20000
61FFE30000
60FF830000
607E030000
2000070000
3000060000
30000E0000
18001C0000
1C00780000
0F01F00000
07FFE00000
03FF800000
00FE000000
ENDCHAR
STARTCHAR C186
ENCODING 186
SWIDTH 620 0
DWIDTH 31 0
BBX 32 32 7 -1
BITMAP
FFFFFFFF
FFFFFFFF
0C000000
0C000000
0C000000
0C078000
181F8000
187F0000
19F30000
1BC60000
37060000
3E0C0000
3C0C0000
300C0000
00180000
00180C00
00F81E00
41F87E00
43F9F300
C3FFE300
C3FF8700
81FE0600
81F80600
80000E00
80000C00
C0000C00
F0078C00
7FFFFC00
3FFFF800
0FF87800
00001800
00001800
ENDCHAR
STARTCHAR C187
ENCODING 187
SWIDTH 560 0
DWIDTH 28 0
BBX 30 32 6 -1
BITMAP
7FFFFFFC
7FFFFFFC
0C0000C0
18000180
18000180
18000180
1800C180
3003E300
300FC300
303F8300
30F98300
61E30600
67830600
6F030600
7C060600
F8060C00
F00C0C00
C00C0C00
000C0C00
000C1800
00181800
01F81800
03FE1800
07FF3000
07FFB000
07F9F000
07F0F000
03E06000
00006000
00006000
00006000
00004000
ENDCHAR
STARTCHAR C188
ENCODING 188
SWIDTH 500 0
DWIDTH 25 0
BBX 30 36 3 -4
BITMAP
00070000
000F807C
001F80FC
003F80C0
00370780
00301F80
001CFD80
000FF180
000F8300
003E0300
00780300
01E00300
03C00600
03F00600
007C0600
001E0600
00070C00
00038C00
0001CC00
0000EC00
00007800
00007800
07F03800
1FFC3800
3FFE3000
7F0F3000
FF03B000
FF01B000
FE00E000
FC00E000
78006000
00006000
0000C000
0000C000
0000C000
00008000
ENDCHAR
STARTCHAR C189
ENCODING 189
SWIDTH 920 0
DWIDTH 46 0
BBX 47 33 7 -1
BITMAP
00F000000000
01F801FFFFFE
03F803FFFFFE
06F803000060
0670060000C0
06001E0000C0
06007E0003C0
0601F6001FC0
0387CC007F80
01FF0C03F180
007C0C0FC180
01F00C1E0180
03C018780300
0F0019F00300
1E001FC00300
78001F000300
F0003E000600
FC003F800600
1F0033E00600
078030F00600
01C060380C00
00E0601C0C00
0070600E0C00
003860070C00
0018C0031800
001CC0039800
000EC001D800
0006C000D800
00078000F000
000380007000
000380007000
000380007000
000300006000
ENDCHAR
STARTCHAR C190
ENCODING 190
SWIDTH 780 0
DWIDTH 39 0
BBX 40 46 7 -1
BITMAP
0004000000
0002000000
0003800000
0001E00000
00007C0000
00001FFE00
000003FFC0
00000001F0
0000000038
0000000008
0000000004
0000000004
0000000004
000000000C
FFFFFFFFFF
FFFFFFFFFF
0000700000
0000700000
0000600000
0000600000
0000E00000
0FC0E00000
3FF0C00000
7FF8C00000
FF3CC00000
FF0FC00700
FF07C00F80
FE03801F80
7C03801F80
0003801F80
0003800F00
0003000700
0003000700
0007000E00
0007001E00
0006001C00
0006003800
000E007800
000E00F000
000C01E000
000C03C000
000C0F8000
000C3F0000
0007FC0000
0007F00000
0003C00000
ENDCHAR
STARTCHAR C191
ENCODING 191
SWIDTH 620 0
DWIDTH 31 0
BBX 32 29 7 2
BITMAP
FFFFFFFF
FFFFFFFF
00018000
00038000
0F838000
3FE38000
7FF30000
FC7F0000
FC1F0000
FC0F0600
F80E0E00
700E1F00
000E7B00
000FF100
800FE100
800F8100
800E0100
C0000100
C0000300
40000300
40000600
60000600
60000E00
30001C00
38007800
1E03F000
0FFFE000
07FF8000
01FC0000
ENDCHAR
STARTCHAR C192
ENCODING 192
SWIDTH 620 0
DWIDTH 31 0
BBX 32 32 7 -1
BITMAP
FFFFFFFF
FFFFFFFF
00000060
00000060
00000060
000000E0
00F000E0
01F800C0
03FC01C0
47FE01C0
47F70380
47F38780
47E1FF00
43C0FE00
6001F800
6003FC00
2007FE00
2007F600
3007F300
3007F300
1007E100
1803C100
18000100
0C000300
0C000300
06000600
07000E00
03801C00
01E07800
00FFF000
007FE000
001F8000
ENDCHAR
STARTCHAR C193
ENCODING 193
SWIDTH 600 0
DWIDTH 30 0
BBX 31 35 7 -4
BITMAP
FFFFFFFE
FFFFFFFE
00000600
00000600
00000600
07000E00
0FC00E00
1FE00C00
3FF01C00
3FB83C00
3F9FF800
3F0FF000
1E07F800
003FFC00
00FFFC00
21F80600
63C00600
77C00E00
67E01E00
67E03C00
67C7F800
638FF000
601FE000
601FE000
601FE000
200F3000
30003000
30007000
10007000
1800E000
0C01E000
0F07C000
07FF8000
03FE0000
00F80000
ENDCHAR
STARTCHAR C194
ENCODING 194
SWIDTH 600 0
DWIDTH 30 0
BBX 31 36 7 -5
BITMAP
FFFFFFFE
FFFFFFFE
000000C0
000000C0
000000C0
00E001C0
01F801C0
03FC0180
47FE0380
47F70780
47F3FF00
67E1FE00
63C1F800
2003F800
3007FC00
300FFE00
180FF600
180FE200
0C0FC200
0C078200
06000600
07000600
03800C00
01E03C00
00FFF800
007FF000
001FF000
0003E000
001FE000
007E6000
007C6000
001EC000
0007C000
0003C000
0001C000
00018000
ENDCHAR
STARTCHAR C195
ENCODING 195
SWIDTH 620 0
DWIDTH 31 0
BBX 33 34 6 -3
BITMAP
7FFFFFFF80
7FFFFFFF80
0000003000
0000003000
0000007000
0078007000
00FC00E000
01FE00E000
03FF81C000
03FBC3C000
03F9FF8000
03F07F0000
01E1FF8000
0007E0C000
000F80C000
001E01C000
003C01C000
2038018000
207E018000
607F038000
607F038000
C07F030000
C03E030000
801C070000
8000070000
8000060000
80000E0000
C0000E0000
F0000C0000
7FFFCC0000
3FFFFC0000
0FFFFC0000
0000380000
0000180000
ENDCHAR
STARTCHAR C196
ENCODING 196
SWIDTH 600 0
DWIDTH 30 0
BBX 31 35 7 -4
BITMAP
FFFFFFFE
FFFFFFFE
00000600
00000600
00000600
07000E00
0FC00E00
1FE00C00
3FF01C00
3FB83C00
3F9FF800
3F0FF000
1E1FE000
007FF800
00FE0C00
01FC0400
01F80600
01E00600
00000E00
00000E00
00001C00
00003C00
0600F800
0303F000
01FFC000
007F0000
00380000
000C0000
00070000
00018000
0000C000
00006000
00003000
00001800
00000800
ENDCHAR
STARTCHAR C197
ENCODING 197
SWIDTH 680 0
DWIDTH 34 0
BBX 36 32 6 -1
BITMAP
7FFFFFFFF0
7FFFFFFFF0
0000600000
0000600000
0000600000
0000C00000
0000C00000
1FC0C00000
3FF0C00F00
7FF9801E00
FF3D807E00
FF0D81FC00
FF0783CC00
FE070F1800
7C031E1800
0003383000
0003703000
0006E03000
0007C06000
0007806000
0007006000
000400C000
000000C000
000000C000
000000C000
0000018000
0000018000
0000018000
0000018000
0000018000
0000018000
0000010000
ENDCHAR
STARTCHAR C198
ENCODING 198
SWIDTH 620 0
DWIDTH 31 0
BBX 32 32 7 -1
BITMAP
FFFFFFFF
FFFFFFFF
00000C00
00000C00
00001800
03F01800
0FFC1800
1FFE1800
3F8F3000
7F83B000
7F81B000
7F00F000
7E00E000
3C007800
0000FF80
0007EF80
001FC300
007CC300
01F0C300
07C0C300
0F018600
0F818600
03C18600
00E18C00
00730C00
003B0C00
001F0C00
000F1800
000E1800
00061800
00061800
00060000
ENDCHAR
STARTCHAR C199
ENCODING 199
SWIDTH 520 0
DWIDTH 26 0
BBX 30 32 4 -1
BITMAP
1FFFFFFC
1FFFFFFC
000000C0
00000180
00000180
00000180
007E0180
01FF8300
07FFC300
0FE1E300
1FE07300
1FE03600
1FE01E00
1FC01E00
0F800E00
00000C00
00000C00
00000C00
03F00C00
0FFC1800
3FFE1800
7F0F1800
FF039800
FF01B000
FF00F000
FE00F000
7C007000
00006000
00006000
00006000
00006000
00004000
ENDCHAR
STARTCHAR C200
ENCODING 200
SWIDTH 540 0
DWIDTH 27 0
BBX 28 32 7 -1
BITMAP
FFFFFFF0
FFFFFFF0
00000300
00000600
00000600
00000600
00000600
0FF00C00
3FFC0C00
7FFF0C00
FE0F8C00
FE01D800
FE00D800
FC007800
78007800
00003000
00003000
0001F000
000FF000
003F6000
00F86000
03E06000
03E06000
00F0C000
0038C000
001CC000
000EC000
00078000
00078000
00038000
00038000
00030000
ENDCHAR
STARTCHAR C201
ENCODING 201
SWIDTH 640 0
DWIDTH 32 0
BBX 33 32 7 -1
BITMAP
FFFFFFFF80
FFFFFFFF80
0000181800
0000183000
03E0183000
0FF8303000
3FFC303000
7F1E306000
FF07306000
FF03606000
FF01E06000
FE01E0C000
7C00E0C000
0000C0C000
0000C0C000
0000C18000
0000C18000
0001818000
000F818000
001FC30000
003FE30000
007FF30000
007FB30000
007F1E0000
007E1E0000
003C0E0000
00000E0000
00000C0000
00000C0000
00000C0000
00000C0000
0000080000
ENDCHAR
STARTCHAR C202
ENCODING 202
SWIDTH 700 0
DWIDTH 35 0
BBX 36 32 7 -1
BITMAP
FFFFFFFFF0
FFFFFFFFF0
00FC000300
001E000600
0007000600
0003000600
0001000600
0001800C00
0001800C00
0F80800C00
3FE0800C00
7FF0801800
7C78801800
7C18BC1800
380DFF1800
000DF1B000
000FC0F000
000F807000
301F007000
303C006000
3078006000
11F0006000
1FE0006000
078000C000
000000C000
000000C000
000000C000
0000018000
0000018000
0000018000
0000018000
0000010000
ENDCHAR
STARTCHAR C203
ENCODING 203
SWIDTH 800 0
DWIDTH 40 0
BBX 40 45 8 0
BITMAP
0004000000
0006000000
0003000000
0001C00000
0000FC0000
00003FFE00
000003FFC0
00000001F0
0000000038
0000000008
0000000004
0000000004
0000000004
000000000C
00001FFFFF
00003FFFFF
03F0300000
0FFC700000
3E06700000
F00F600000
FC1F600000
047DE00000
06F8E00000
07E0C00000
0FC0C00000
1F01C00700
3E01C00F80
1801801F80
0001801F80
0003801F80
0003800F00
0003000700
0003000E00
0007000E00
0007001C00
0006003C00
0006007800
000E00F000
000E01E000
000C07C000
000C0F8000
000C3E0000
0007FC0000
0007F00000
0003C00000
ENDCHAR
STARTCHAR C204
ENCODING 204
SWIDTH 640 0
DWIDTH 32 0
BBX 32 33 8 -1
BITMAP
00000060
007F00FF
03FFC0FF
0FC060C0
1E0030C0
78007980
7E01FD80
0303E580
010F8780
019F0300
81FC0300
83F80300
83E00300
87C00600
8F000600
8603F600
C007FE00
C00FFC00
400FEC00
400FE600
600FE600
600FC200
30078200
30000200
18000600
18000600
0C000C00
0E001C00
07003800
03C0F000
01FFE000
00FFC000
003F0000
ENDCHAR
STARTCHAR C205
ENCODING 205
SWIDTH 600 0
DWIDTH 30 0
BBX 29 33 9 -1
BITMAP
00000180
00FE01F8
07FF81F8
1F80C180
3C006300
F000F300
FC01F300
0607DB00
020F8E00
033E0600
037C0600
03F00600
07E00C00
0F800C00
1F000C00
1C000C00
08001800
00001800
00001800
00001800
0FF03000
1FFC3000
3FFE3000
7F0F3000
7F03E000
7F01E000
7E00E000
3C00E000
0000C000
0000C000
0000C000
0000C000
00008000
ENDCHAR
STARTCHAR C206
ENCODING 206
SWIDTH 600 0
DWIDTH 30 0
BBX 33 33 5 -1
BITMAP
0000001800
000FE01F80
007FF81F80
01F80C1800
07C0063000
0F000F3000
0FC03F3000
00607DB000
0021F0E000
0033E06000
003F806000
007F006000
007C00C000
01F000C000
01E000C000
008000C000
0000018000
0000018000
00FE018000
07FF818000
1F80C30000
7C00630000
F000F30000
FC03F30000
0607DE0000
021F0E0000
033E060000
03F8060000
03F00C0000
07C00C0000
1F000C0000
1E000C0000
1800180000
ENDCHAR
STARTCHAR C207
ENCODING 207
SWIDTH 600 0
DWIDTH 30 0
BBX 31 33 7 -1
BITMAP
00000060
003F807E
01FFE07E
07E03060
0F0018C0
3C003CC0
3F007CC0
0181F6C0
0083E380
00CF8180
00DF0180
00FC0180
01F80300
03E00300
07C00300
07000300
02000600
00000600
07E00600
1FF3E600
3C3FFC00
701E3C00
600C1C00
DC081C00
FE081800
FE001800
FE001800
FC001800
78003000
00003000
00003000
00003000
00002000
ENDCHAR
STARTCHAR C208
ENCODING 208
SWIDTH 700 0
DWIDTH 35 0
BBX 36 32 7 -1
BITMAP
FFFFFFFFF0
FFFFFFFFF0
00FC000300
001E000600
0007000600
0003000600
0003000600
07C1800C00
1FF1800C00
7C38800C00
78F8800C00
0DF8801800
0FCC801800
0F80BC1800
1F01FF1800
1C01F1B000
0803C0F000
000F807000
301F007000
303C006000
3078006000
11F0006000
1FE0006000
078000C000
000000C000
000000C000
000000C000
0000018000
0000018000
0000018000
0000018000
0000010000
ENDCHAR
STARTCHAR C209
ENCODING 209
SWIDTH 680 0
DWIDTH 34 0
BBX 37 34 5 -3
BITMAP
3FFFFFFFF8
3FFFFFFFF8
00F0000000
001C000000
000600F000
000301FC00
000181FE00
0007818F00
000F818300
001E030100
003C030100
0078030100
00F0030300
0078060300
000E063E00
0003067E00
0001867C00
0000CC7C00
00006C3800
00006C0000
00003C0000
0FC7B80000
3FEFD80000
787CD80000
E038780000
F810700000
FC10300000
FC00300000
FC00300000
F800600000
7000600000
0000600000
0000600000
0000400000
ENDCHAR
STARTCHAR C210
ENCODING 210
SWIDTH 680 0
DWIDTH 34 0
BBX 36 31 6 0
BITMAP
7FFFFFFFF0
7FFFFFFFF0
0003000000
001E000000
007E000000
01F7000000
07C7C00E00
1F0CFFFF00
1F0C3FFF00
078C000E00
41CC001C00
C0F8601800
C078E03800
807BF03000
803FB07000
803F186000
803C186000
C00008E000
C00008C000
400018C000
600018C000
700030C000
3C0071C000
1F01E18000
0FFFC18000
03FF818000
00FE018000
0000018000
0000018000
0000018000
0000018000
ENDCHAR
STARTCHAR C211
ENCODING 211
SWIDTH 640 0
DWIDTH 32 0
BBX 33 32 7 -1
BITMAP
FFFFFFFF80
FFFFFFFF80
0003000000
0003000000
000F000000
007F000000
01FE000000
0FC6000000
3F06007800
F80600F000
FC0C03F000
1E0C0FE000
070C1E6000
038C38C000
01D8F0C000
00F9E18000
007B818000
007F018000
003E030000
003C030000
0038030000
0030060000
0000060000
0000060000
0000060000
00000C0000
00000C0000
00000C0000
00000C0000
00000C0000
00000C0000
0000080000
ENDCHAR
STARTCHAR C212
ENCODING 212
SWIDTH 640 0
DWIDTH 32 0
BBX 33 32 7 -1
BITMAP
FFFFFFFF80
FFFFFFFF80
00000C0000
00007C0000
0003FC0000
001FD80000
007E180000
03F0180000
0FC0180000
3E00300000
7800300000
7000FFE000
3803FFE000
1C1FE0C000
0E7E60C000
06F060C000
07C0C18000
0F80C18000
1E00C18000
3C00C30000
3F01830000
0781830000
01C1830000
00E1860000
0073060000
003B060000
001B060000
001F0C0000
000E0C0000
000E0C0000
00060C0000
0006000000
ENDCHAR
STARTCHAR C213
ENCODING 213
SWIDTH 540 0
DWIDTH 27 0
BBX 28 32 7 -1
BITMAP
FFFFFFF0
FFFFFFF0
00000300
00003E00
0001FE00
000FE600
007F0600
01F80C00
0FC00C00
3F000C00
78000C00
70007800
3803F800
1C0FD800
0E7E1800
07F83000
07C03000
0F003000
3C003000
78006000
7E006000
0F806000
03E06000
00F0C000
0038C000
001CC000
000EC000
00078000
00078000
00038000
00038000
00030000
ENDCHAR
STARTCHAR C214
ENCODING 214
SWIDTH 540 0
DWIDTH 27 0
BBX 30 32 5 -1
BITMAP
3FFFFFFC
3FFFFFFC
000000C0
00000380
00003F80
0001FF80
0007E180
003F0300
00FC0300
03E00300
03F00300
007C0600
001F0600
00078600
0001C600
0000EC00
00007C00
00003C00
0FE03C00
3FF3D800
783FF800
E01E7800
C00C3800
B8083000
FC003000
FC003000
FC003000
F8006000
70006000
00006000
00006000
00004000
ENDCHAR
STARTCHAR C215
ENCODING 215
SWIDTH 700 0
DWIDTH 35 0
BBX 36 32 7 -1
BITMAP
FFFFFFFFF0
FFFFFFFFF0
0000000000
0000000000
0000000000
0000000000
0000006000
0000007000
000000F800
000001D800
181E078C00
383F0F0C00
307F3E1C00
607FF81800
607FF01800
C07FC03800
C03F003000
8000003000
8000003000
8000007000
8000006000
C000006000
C000006000
600000E000
780000C000
3FFFF8C000
1FFFFEC000
07FFFFC000
0000078000
0000018000
0000018000
0000018000
ENDCHAR
STARTCHAR C216
ENCODING 216
SWIDTH 600 0
DWIDTH 30 0
BBX 33 34 5 -3
BITMAP
3FFFFFFF80
3FFFFFFF80
0000000000
000F800000
0C1FC18000
0C3FC38000
0C3FC7C000
043FDE4000
063FFC6000
061FF86000
0207E06000
030000E000
030000C000
018001C000
01C0078000
00F01F0000
007FFF0000
003FFB0000
000FE60000
0000060000
0000060000
0FC3C60000
3FF7EC0000
787E7C0000
E01C3C0000
DC081C0000
BE08180000
FE00180000
FE00180000
FC00180000
3800300000
0000300000
0000300000
0000200000
ENDCHAR
STARTCHAR C217
ENCODING 217
SWIDTH 560 0
DWIDTH 28 0
BBX 31 32 5 -1
BITMAP
3FFFFFFE
3FFFFFFE
00400060
00600060
00600030
00600030
07E00030
0FF00070
1FF80070
1FFC00E0
1FCE01E0
1F8787C0
0F03FF80
0001FF00
00007B00
00000600
00000600
00000600
03F80600
0FFE0C00
3FFF0C00
7F078C00
FF01CC00
FF00D800
FF007800
FE007800
7C003800
00003000
00003000
00003000
00003000
00002000
ENDCHAR
STARTCHAR C218
ENCODING 218
SWIDTH 1000 0
DWIDTH 50 0
BBX 51 33 7 -1
BITMAP
00000000000600
FFFFF007E007E0
FFFFF83FF807E0
030018FC0E0600
01800FE0030C00
03800F80038C00
1F801FC0078C00
3FC01C601FCC00
7FE038203E7800
7FF07830F83800
7F3FF031F01800
7E1FE037C01800
3C0F803F803000
0000007E003000
0000007C003000
000001F0003000
000001E0006000
00000180006000
00000000006000
00000000006000
0000000000C000
0000000000C000
0000000000C000
0000000000C000
00000000018000
00000000018000
00000000018000
00000000018000
00000000030000
00000000030000
00000000030000
00000000030000
00000000020000
ENDCHAR
STARTCHAR C219
ENCODING 219
SWIDTH 940 0
DWIDTH 47 0
BBX 48 32 7 -1
BITMAP
FFFFFFFFFFFF
FFFFFFFFFFFF
03000C000000
018006000000
018006000000
1F8006003C00
3FC00E003F00
7FE00E007F80
7FF01C0073C0
7F383C0060C0
7E1FFE006040
3C0FF300E040
0007C380E040
00000780C0C0
00000F00C0C0
00001E01C180
00003C01CF80
000078019F80
0000F0019F00
0001E0039F00
0001C0038E00
0001F0030000
00001C030000
000007070000
000001870000
000000C60000
000000660000
0000003E0000
0000001E0000
0000001C0000
0000001C0000
0000000C0000
ENDCHAR
STARTCHAR C220
ENCODING 220
SWIDTH 560 0
DWIDTH 28 0
BBX 29 32 7 -1
BITMAP
FFFFFFF8
FFFFFFF8
01000180
01800080
018000C0
018000C0
1F8000C0
3FC001C0
7FE001C0
7FF00380
7F380780
7E1E1F00
3C0FFE00
0007FC00
0001FC00
0000F800
0007F800
003F9800
00FC1800
03E03000
0F803000
0F803000
03E03000
00F06000
00386000
001C6000
000E6000
0007C000
0003C000
0003C000
0001C000
00018000
ENDCHAR
STARTCHAR C221
ENCODING 221
SWIDTH 640 0
DWIDTH 32 0
BBX 33 32 7 -1
BITMAP
FFFFFFFF80
FFFFFFFF80
00C000C000
0060006000
0060006000
00E0006000
0FE0006000
1FE000E000
3FF000E000
3FF801C000
3F9C03C000
3F0E078000
1E07FF0000
0003FE0000
C0F9FC0000
C1FC0C0000
C3FC3E0000
C3FC7A0000
C3FDF30000
C3FFC30000
C1FF830000
407E030000
6000030000
6000070000
2000060000
30000E0000
18001C0000
1C00780000
0F01F00000
07FFE00000
03FF800000
00FE000000
ENDCHAR
STARTCHAR C222
ENCODING 222
SWIDTH 620 0
DWIDTH 31 0
BBX 32 32 7 -1
BITMAP
FFFFFFFF
FFFFFFFF
00800080
00C000C0
00C000C0
0FC000C0
1FC001C0
3FF001C0
3FF80380
3FBC0780
3F0E0F00
1E07FE00
0003FC00
0001FC00
00F01E00
01F83E00
43F87300
43F9E300
C3FFC700
C3FF8600
81FE0600
80F80600
80000E00
80000C00
C0000C00
F0000C00
7FFFFC00
3FFFF800
0FFFF800
00001800
00001800
00001800
ENDCHAR
STARTCHAR C223
ENCODING 223
SWIDTH 700 0
DWIDTH 35 0
BBX 36 32 7 -1
BITMAP
FFFFFFFFF0
FFFFFFFFF0
0100018300
0180008600
018000C600
018000C600
1F8000C600
3FC001CC00
7FE001CC00
7FF0038C00
7F38078C00
7E1E1F1800
3C0FFE1800
0007FC1800
0001EC1800
0000183000
0000183000
0000783000
0001FC3000
0003FE6000
0007FF6000
0007FB6000
0007F9E000
0007F1C000
0003E0C000
000000C000
000000C000
0000018000
0000018000
0000018000
0000018000
0000010000
ENDCHAR
STARTCHAR C224
ENCODING 224
SWIDTH 580 0
DWIDTH 29 0
BBX 31 32 6 -1
BITMAP
7FFFFFFE
7FFFFFFE
00C00040
00E00060
00600060
00E00060
0FE00060
1FE000E0
3FF000E0
3FF801C0
3F9C03C0
3F0F0780
1E07FF00
0003FF00
0000FB00
00000600
00000600
07E00600
1FF3C600
3C3FEC00
701E7C00
600C3C00
FC081C00
FE081800
FE001800
FE001800
FC001800
78003000
00003000
00003000
00003000
00002000
ENDCHAR
STARTCHAR C225
ENCODING 225
SWIDTH 640 0
DWIDTH 32 0
BBX 33 32 7 -1
BITMAP
FFFFFFFF80
FFFFFFFF80
00000C0000
00000C0000
00000C0000
07E0180000
1FF3D80000
3C3FD80000
701E780000
600C700000
DC08300000
FE08300000
FE00300000
FE00600000
FC03F80000
780FFE0000
007E6F0000
01F8C38000
07C0C18000
0F00C18000
1C00C18000
1F018F8000
07C19F8000
01E1BF0000
0071BF0000
003B3E0000
001F1C0000
000F000000
000F000000
0006000000
0006000000
0006000000
ENDCHAR
STARTCHAR C226
ENCODING 226
SWIDTH 600 0
DWIDTH 30 0
BBX 31 32 7 -1
BITMAP
FFFFFFFE
FFFFFFFE
00000060
000000C0
000000C0
03F800C0
0FFE78C0
1E0FFD80
3803CF80
70018780
6E010380
5F010300
7F000300
7F000300
7E000300
3DFE0600
07FF8600
1F80C600
3E006600
78002C00
70003C00
7C001C00
7F001C00
21801800
00801800
00C01800
00C01800
01C03000
03C03000
07803000
03003000
00002000
ENDCHAR
STARTCHAR C227
ENCODING 227
SWIDTH 600 0
DWIDTH 30 0
BBX 31 36 7 -5
BITMAP
FFFFFFFE
FFFFFFFE
00000180
00000180
03F00180
0FFCF300
1E1FFB00
38079F00
70030F00
6E020600
5F000600
7F000600
7F000600
7E000C00
3C3E0C00
01FF8C00
03FFDC00
47C1DE00
6FC07E00
EFE03E00
E7E03600
C0300E00
C070FE00
C0F1FC00
C3E3FC00
C1C3F800
4103F800
6003FC00
2001EC00
30000C00
18001C00
1E003C00
0F80F800
07FFF000
01FFC000
007F0000
ENDCHAR
STARTCHAR C228
ENCODING 228
SWIDTH 800 0
DWIDTH 40 0
BBX 41 46 7 -1
BITMAP
000200000000
000300000000
000180000000
0000E0000000
00007E000000
00001FFF0000
000001FFE000
00000000F800
000000001C00
000000000400
000000000200
000000000200
000000000200
000000000600
FFFFFFFFFF80
FFFFFFFFFF80
000038000000
000030000000
000030000000
07C030000000
1FE770000000
3C7FF0000000
303DE0000000
6018E0000000
7C10E0000000
7E10E0038000
7E00C007C000
7E00C00FC000
7C01C00FC000
7801C00FC000
000180078000
000180038000
000180070000
0003800F0000
0003800E0000
0003001C0000
0003003C0000
000700780000
000700F00000
000601E00000
000603C00000
00060F800000
00061F000000
0003FC000000
0003F8000000
0001E0000000
ENDCHAR
STARTCHAR C229
ENCODING 229
SWIDTH 720 0
DWIDTH 36 0
BBX 37 29 7 2
BITMAP
FFFFFFFFF8
FFFFFFFFF8
00000C0000
03E01C0000
0FF7D80000
1E3FF80000
381C780000
3E08380000
3F08300000
3F00303000
3F00307000
3E0070F800
1C0063D800
00006F8800
06007F0800
06007C0800
0600700800
0600000800
0200001800
0200001800
0200003000
0300003000
0300007000
018000E000
01C003C000
00F01F8000
007FFF0000
003FFC0000
000FE00000
ENDCHAR
STARTCHAR C230
ENCODING 230
SWIDTH 600 0
DWIDTH 30 0
BBX 33 32 5 -1
BITMAP
3FFFFFFF80
3FFFFFFF80
0000001800
0000003000
007F1F3000
01FFBFB000
03C1F1B000
0700E0E000
060040E000
05C0406000
07E0006000
07E000C000
07C000C000
038000C000
000000C000
0000018000
00FC018000
07FF818000
1F81C18000
7C00630000
F000F30000
FC03F30000
0607DB0000
021F0E0000
037E060000
03F8060000
07E0060000
0FC00C0000
1F000C0000
1C000C0000
00000C0000
0000080000
ENDCHAR
STARTCHAR C231
ENCODING 231
SWIDTH 600 0
DWIDTH 30 0
BBX 31 32 7 -1
BITMAP
FFFFFFFE
FFFFFFFE
00000060
000000C0
000000C0
000000C0
000000C0
03F00180
0FFCF980
1E1FFD80
38078D80
70030700
7C020700
7E020300
7E000300
7E000600
7C001E00
3800FE00
0003F600
000F8C00
003E0C00
01F80C00
01F80C00
003E1800
000F1800
00039800
0001D800
0000F000
0000F000
00007000
00007000
00006000
ENDCHAR
STARTCHAR C232
ENCODING 232
SWIDTH 700 0
DWIDTH 35 0
BBX 36 32 7 -1
BITMAP
FFFFFFFFF0
FFFFFFFFF0
0000030300
0000030600
0000030600
03F0030600
0FF9E60600
1E1FF60C00
380F360C00
30061E0C00
7E041C0C00
7F040C1800
7F000C1800
7F000C1800
7E00181800
3C00183000
0000183000
0000183000
0000303000
0001F06000
0003F06000
0007F86000
000FFC6000
000FFEC000
000FE7C000
000FC3C000
000781C000
0000018000
0000018000
0000018000
0000018000
0000010000
ENDCHAR
STARTCHAR C233
ENCODING 233
SWIDTH 620 0
DWIDTH 31 0
BBX 34 32 5 -1
BITMAP
3FFFFFFFC0
3FFFFFFFC0
0000000C00
0000001800
0000001800
00FE001800
03FF9F1800
0783FFB000
0E00F1F000
1C0060F000
1B80407000
17C0406000
1FC0006000
1FC0006000
1F80006000
0F0000C000
000000C000
07F000C000
1FFCF8C000
3C1FFD8000
70078F8000
E003078000
DC02038000
BE02030000
FE00030000
FE00030000
FC00030000
7800060000
0000060000
0000060000
0000060000
0000040000
ENDCHAR
STARTCHAR C234
ENCODING 234
SWIDTH 840 0
DWIDTH 42 0
BBX 43 32 7 0
BITMAP
000002000000
FF03C7FFFFE0
FF8FE7FFFFE0
0FDFE6000000
00FC36000000
00F81E000000
03FC1E000000
07FE0F000000
0FFE0D800000
1FFF1DE00000
1FFF1CF80000
3FFF1C7E0000
3F3F181FC000
3C1E3807E000
00003801F000
000038007000
000030007000
00003000E000
00007001E000
00007001C000
000060038000
000060078000
0000600F0000
0000E01E0000
0000E03C0000
0000C0F80000
0000C1F00000
0000C7C00000
0000CF800000
0000FE000000
00007C000000
000070000000
ENDCHAR
STARTCHAR C235
ENCODING 235
SWIDTH 880 0
DWIDTH 44 0
BBX 45 33 7 -1
BITMAP
000000C00000
FE01E0FFFFF8
FF87F1FFFFF8
07CFF9C00000
01FE1D800000
007C0F800000
01FE07800000
07FF03C00000
0FFF037FE000
1FFF871FF800
1FFF87070C00
3FFF87070C00
3F1F860E0C00
3C0F0E1E1C00
00000E3C1C00
00000EF83800
00000FF07800
000007C0F000
00000003E000
00000007C000
0000003F0000
000003FE0000
000003F00000
000000C00000
000000600000
000000300000
000000180000
0000000C0000
000000060000
000000020000
000000030000
000000018000
00000000C000
ENDCHAR
STARTCHAR C236
ENCODING 236
SWIDTH 600 0
DWIDTH 30 0
BBX 31 33 7 -1
BITMAP
00000060
FF00F07E
FFC3F87E
0FEFFCE0
00FF0EE0
003C07C0
00FE03C0
03FF01C0
07FF01C0
0FFF8180
0FFF8180
1FFF8380
1F9F8380
1E0F0300
00000300
00000700
00000700
00000600
00000600
00000600
03FC0E00
07FF0C00
0FFF8C00
1FC3CC00
1FC0F800
1FC07800
1F803800
0F003800
00003000
00003000
00003000
00003000
00002000
ENDCHAR
STARTCHAR C237
ENCODING 237
SWIDTH 720 0
DWIDTH 36 0
BBX 37 33 7 -1
BITMAP
0000008000
FE01E1FFF8
FF87F1FFF8
0FCFF98180
01FE198300
007C0F8300
01FE078300
07FF070300
0FFF030600
1FFF870600
1FFF870600
3FFF860600
3F3F860C00
3C0F0E0C00
00000E0C00
00000C0C00
00000C1800
00001C1800
00001C1800
0000181800
0000F83000
0001F83000
0003FC3000
0007FE3000
0007FF6000
0007F3E000
0007E1E000
0003C0E000
000000C000
000000C000
000000C000
000000C000
0000008000
ENDCHAR
STARTCHAR C238
ENCODING 238
SWIDTH 600 0
DWIDTH 30 0
BBX 31 33 7 -1
BITMAP
00000060
FF00F07E
FFC3F87E
0FEFFCE0
00FF0EE0
003C07C0
00FE03C0
03FF01C0
07FF01C0
0FFF8180
0FFF8180
1FFF8380
1F9F8380
1E0F0300
00000300
00000700
00000700
00000600
07E00600
1FF3E600
3C3FFE00
701E3C00
600C1C00
DC081C00
FE081800
FE001800
FE001800
FC001800
78003000
00003000
00003000
00003000
00002000
ENDCHAR
STARTCHAR C239
ENCODING 239
SWIDTH 600 0
DWIDTH 30 0
BBX 31 33 7 -1
BITMAP
00000060
FF00F07E
FFC3F87E
0FEFFCE0
00FF0EE0
003C07C0
00FE03C0
03FF01C0
07FF01C0
0FFF8180
0FFF8180
1FFF8380
1F9F8380
1E0F0300
00000300
00000700
00000700
00000E00
00007E00
0003FE00
000FCE00
003E0C00
01F80C00
01F80C00
003E1800
000F1800
00039800
0001D800
0000F000
0000F000
00007000
00007000
00006000
ENDCHAR
STARTCHAR C240
ENCODING 240
SWIDTH 600 0
DWIDTH 30 0
BBX 32 32 6 -1
BITMAP
7FFFFFFF
7FFFFFFF
003FF000
00FC1800
03E01800
07E03800
0E303000
1C107000
1818E000
380DE000
3007E000
301FF000
307FFC00
1FFCDE00
0FF0C700
07C18300
1F018300
3C018300
F0018F00
FC031F00
1E033F00
07033F00
03833E00
01C61C00
00E60000
00660000
00760000
003C0000
001C0000
001C0000
001C0000
00180000
ENDCHAR
STARTCHAR C241
ENCODING 241
SWIDTH 820 0
DWIDTH 41 0
BBX 42 34 7 -3
BITMAP
FFFFFFFFFFC0
FFFFFFFFFFC0
007FF0000000
01F818000000
03C018000000
07C038000000
0E6030000000
1C3070000000
1818E0000000
380DFE000000
3007FF800000
301FF0C00000
307FC0C00000
1FFF01C00000
0FDE01C00000
001C01800000
0838019F8000
183F03FFC000
383F83EFE000
303F831FE000
603F831FE000
601F071FE000
400E071FC000
4000060F8000
400006000000
40000E000000
60000E000000
70000C000000
3E000C000000
1FFFFC000000
0FFFFC000000
01FFF8000000
000018000000
000018000000
ENDCHAR
STARTCHAR C242
ENCODING 242
SWIDTH 540 0
DWIDTH 27 0
BBX 29 46 6 -2
BITMAP
04000000
07000000
03C00000
00F80000
003FF800
0007FF00
00000780
000000C0
00000040
00000020
00000020
00000020
00000060
7FFFFFF8
7FFFFFF8
003FF800
00FC0C00
03E00C00
07C01C00
0E601800
1C203800
38303000
30187000
700CE000
6005C000
60078000
603F0000
60FC0000
3FF00000
1FC0E000
0F81F000
1E03F800
3C03F800
7803F000
F001F000
E0007000
C000E000
C000E000
C001C000
C003C000
40078000
600F0000
383E0000
3FFC0000
1FF00000
07C00000
ENDCHAR
STARTCHAR C243
ENCODING 243
SWIDTH 600 0
DWIDTH 30 0
BBX 31 46 7 2
BITMAP
00003C00
00007C00
00007000
00006000
0000E000
0000E000
0000C000
0000C000
0001C000
0001C000
00018000
00018000
00018000
00018000
00018000
00018000
00018000
FFFFFFFE
FFFFFFFE
00FFC000
03E0E000
0781F000
0F01D000
1D819800
18838C00
38C38400
30670600
702F0200
603E0300
607E0300
61FC0300
3FFC0300
1F780700
00F00700
01E00E00
03C00E00
0F801C00
3F001C00
3C003800
30007800
3000F000
3001E000
1007C000
181F8000
0FFE0000
03F80000
ENDCHAR
STARTCHAR C244
ENCODING 244
SWIDTH 800 0
DWIDTH 40 0
BBX 37 32 6 -1
BITMAP
7FFFFF0000
7FFFFF03E0
0E00030FF0
0380031C18
01C0033008
00E0066008
007006C008
0038078018
001C070010
003E0E0030
007F0C03E0
00F38C07C0
03E1CC07C0
07C0F807E0
0F00780020
3E001C0020
7C001C0020
F000360060
7C00320040
0F003300C0
03C031C380
00E060FF00
0030603C00
0018600000
000C600000
0006C00000
0006C00000
0003C00000
0003C00000
0001800000
0001800000
0000800000
ENDCHAR
STARTCHAR C245
ENCODING 245
SWIDTH 880 0
DWIDTH 44 0
BBX 45 33 7 -1
BITMAP
000000000180
FFFF007E01F8
FFFF83FF81F8
03F0CFC0C180
0780FE006300
0F81F8006300
1CC1FC01F300
3843C603FB00
306702078E00
703E031F0E00
601C033E0600
607803F80600
61F003F00C00
3FC007C00C00
1F000F800C00
00001F000C00
00003C001800
000018001800
000000001800
000000001800
000000003000
000000003000
000000003000
000000003000
000000006000
000000006000
000000006000
000000006000
00000000C000
00000000C000
00000000C000
00000000C000
000000008000
ENDCHAR
STARTCHAR C246
ENCODING 246
SWIDTH 820 0
DWIDTH 41 0
BBX 42 32 7 -1
BITMAP
FFFFFFFFFFC0
FFFFFFFFFFC0
00FF80000000
03F0C0000000
0780C0000000
0F81C0070000
1C81800FC000
38C3800FE000
3063000CF000
7037001C3000
601F80181000
603CC0181000
61F860181000
3FE0E0383000
1F01E0303000
0003C0306000
00078033E000
000F0077E000
001E0067C000
003C0067C000
003800638000
003E00E00000
000380C00000
0000E0C00000
000030C00000
000019C00000
00000D800000
000007800000
000007800000
000007800000
000003000000
000003000000
ENDCHAR
STARTCHAR C247
ENCODING 247
SWIDTH 600 0
DWIDTH 30 0
BBX 31 32 7 -1
BITMAP
FFFFFFFE
FFFFFFFE
007FE060
01F830C0
07C030C0
0FC070C0
1C6060C0
3820E180
3031C180
701B8180
600F0180
603E0300
60FE0300
3FEC0300
1F8C0300
000C0600
000C0600
01F80600
03FE0600
07FF0C00
07FF8C00
07F9CC00
07F0CC00
03E07800
00007800
00003800
00003800
00003000
00003000
00003000
00003000
00002000
ENDCHAR
STARTCHAR C248
ENCODING 248
SWIDTH 740 0
DWIDTH 37 0
BBX 38 32 7 -1
BITMAP
FFFFFFFFFC
FFFFFFFFFC
000F003000
001F003800
001F003800
003F003800
007B803800
0071807800
40F0C07000
61E060F000
3FC03FE000
0F000F8000
000007E000
00001FF000
00007F3800
0001F31800
0007C31C00
001F030C00
003C060C00
0070060C00
007C060C00
001E067C00
00070CF800
00038DF800
0001CDF000
0000ECE000
0000780000
0000780000
0000380000
0000380000
0000300000
0000300000
ENDCHAR
STARTCHAR C249
ENCODING 249
SWIDTH 840 0
DWIDTH 42 0
BBX 43 34 7 -3
BITMAP
FFFFFFFFFFE0
FFFFFFFFFFE0
000F00300000
000F00380000
001F80380000
003F80380000
003980780000
0078C0700000
30F060F00000
1FE03FE00000
07803F800000
0000FF800000
0003F0C00000
0007C0C00000
000F01C00000
001E01C00000
081C019FC000
183F01FFE000
183F81E7F000
303F838FF000
303F838FF000
601F030FF000
600E030FE000
40000707C000
400007000000
400006000000
400006000000
600006000000
78000E000000
3FFFEE000000
1FFFFC000000
07FFFC000000
00001C000000
00000C000000
ENDCHAR
STARTCHAR C250
ENCODING 250
SWIDTH 740 0
DWIDTH 37 0
BBX 38 38 7 -7
BITMAP
FFFFFFFFFC
FFFFFFFFFC
000F003000
001F003800
001F003800
003F003800
007B803800
0071807800
40F0C07000
61E060F000
3FC03FE000
0F000F8000
0000018000
00000FE000
00003FF000
0001FB3800
0007E31C00
000F030C00
003C030C00
003E063C00
000F067C00
000386FC00
0001C6F800
0000ECF000
00007C6000
07E03C0000
1FF3FC0000
3C3FF80000
701E780000
7C0C380000
7E08380000
7E00300000
7E00300000
7C00300000
3800300000
0000600000
0000600000
0000600000
ENDCHAR
STARTCHAR C251
ENCODING 251
SWIDTH 800 0
DWIDTH 40 0
BBX 41 33 7 -1
BITMAP
000000001800
FFFFFC001F80
FFFFFE001F80
003807001800
007807003000
007C07003000
00FC07003000
00FC07003000
01EC0F006000
01CE0E006000
73C61E006000
3F83FE006000
1E00F700C000
00000780C000
00000CC0C000
00078C60C000
000FD8618000
001FF0618000
001FE0618000
001FC0C18000
000F03830000
00000F030000
00003C030000
000070030000
0000E0060000
0000F8060000
00001E060000
000007060000
000001CC0000
000000EC0000
0000003C0000
0000001C0000
000000080000
ENDCHAR
STARTCHAR C252
ENCODING 252
SWIDTH 820 0
DWIDTH 41 0
BBX 42 45 7 0
BITMAP
000200000000
000300000000
0001C0000000
0000E0000000
00003C000000
00001FFC0000
000003FFE000
00000003F800
000000001C00
000000000600
000000000200
000000000100
000000000100
000000000300
FFFFFFFFFFC0
FFFFFFFFFFC0
0F8007000000
0FC006000000
00C006000000
006006000000
00600E000000
00200E000000
00200C000000
00200C000000
002F1C000000
003FDC038000
007C7807C000
00F0380FE000
81E0380FE000
C3C0380FC000
CF803007C000
7F003001C000
3C0070038000
000070078000
000060070000
0000600E0000
0000601E0000
0000E03C0000
0000E0780000
0000C0F00000
0000C3E00000
0000C7C00000
00007F000000
00007E000000
000038000000
ENDCHAR
STARTCHAR C253
ENCODING 253
SWIDTH 680 0
DWIDTH 34 0
BBX 35 32 7 -1
BITMAP
FFFFFFFFE0
FFFFFFFFE0
0003C00600
0007C00700
0007C00700
000FC00700
001EE00700
001CE00F00
003C600E00
5078301E00
58F0183C00
6FE01FF800
63807FE000
2000FFC000
3001FEC000
3001FE6000
1001FE6000
1801FC2000
1800F82000
0C00002000
0C00002000
0600002000
0600006000
0300006000
0300004000
018000C000
01C001C000
00E0038000
00781F0000
003FFE0000
001FF80000
0007E00000
ENDCHAR
STARTCHAR C254
ENCODING 254
SWIDTH 600 0
DWIDTH 30 0
BBX 31 35 7 -4
BITMAP
FFFFFFFE
FFFFFFFE
003C0180
007C01C0
007C01C0
00FC01C0
00EC01C0
01EE01C0
01CE03C0
C3C60380
E7830780
7F01FF00
3C07FC00
003FFC00
00FFFC00
21F80600
63C00600
77C00E00
67E01E00
67E03C00
67C7F800
638FF000
601FE000
601FE000
601FE000
200F3000
30003000
30007000
10007000
1800E000
0C01E000
0F07C000
07FF8000
03FE0000
00F80000
ENDCHAR
STARTCHAR C255
ENCODING 255
SWIDTH 640 0
DWIDTH 32 0
BBX 34 34 6 -3
BITMAP
7FFFFFFFC0
7FFFFFFFC0
0007801800
000F801C00
001FC01C00
001DC01C00
003CC03C00
0078603800
18F0307800
0FE01FF000
07803FC000
0000FFC000
0003F06000
0007C06000
000F00E000
001E00E000
001C00C000
303F00C000
703F81C000
603F81C000
603F818000
C03F018000
C01E038000
8000038000
8000030000
C000030000
C000070000
6000070000
7800060000
3FFFE60000
1FFFFE0000
07FFFE0000
00001C0000
00000C0000
ENDCHAR
ENDFONT
